<svg height="512pt" viewBox="-60 0 512 512" width="512pt" xmlns="http://www.w3.org/2000/svg"><path d="m316.105469 512h-241.074219c-5.292969 0-10.207031-2.738281-12.992188-7.238281-19.441406-31.402344-34.730468-68.761719-45.449218-111.027344-11.007813-43.410156-16.589844-89.75-16.589844-137.734375s5.582031-94.324219 16.589844-137.734375c10.71875-42.265625 26.011718-79.625 45.449218-111.027344 2.785157-4.5 7.699219-7.238281 12.992188-7.238281h241.074219c5.292969 0 10.207031 2.738281 12.992187 7.238281 19.441406 31.402344 34.734375 68.761719 45.449219 111.027344 11.007813 43.410156 16.589844 89.75 16.589844 137.734375s-5.582031 94.324219-16.589844 137.734375c-10.714844 42.269531-26.007813 79.625-45.449219 111.03125-2.785156 4.496094-7.699218 7.234375-12.992187 7.234375zm0 0" fill="#83360b"/><path d="m329.097656 7.238281c-2.785156-4.5-7.699218-7.238281-12.992187-7.238281h-120.535157v512h120.535157c5.292969 0 10.207031-2.738281 12.992187-7.238281 19.4375-31.402344 34.730469-68.761719 45.449219-111.027344 11.007813-43.410156 16.589844-89.75 16.589844-137.734375s-5.582031-94.324219-16.589844-137.734375c-10.71875-42.265625-26.011719-79.625-45.449219-111.027344zm0 0" fill="#622a06"/><path d="m257.867188 512h-124.597657l-2.96875-11.445312c-16.210937-62.542969-25.507812-151.679688-25.507812-244.554688s9.296875-182.011719 25.507812-244.554688l2.96875-11.445312h124.597657l2.964843 11.445312c16.214844 62.542969 25.511719 151.679688 25.511719 244.554688s-9.296875 182.011719-25.511719 244.554688zm0 0" fill="#b04617"/><path d="m257.867188 0h-62.296876v512h62.296876l2.96875-11.445312c16.210937-62.542969 25.507812-151.679688 25.507812-244.554688s-9.296875-182.011719-25.507812-244.554688zm0 0" fill="#83360b"/><path d="m16.589844 118.265625c-.5625 2.21875-1.101563 4.449219-1.632813 6.683594h361.226563c-.535156-2.234375-1.074219-4.464844-1.636719-6.683594-2.0625-8.144531-4.304687-16.101563-6.703125-23.875h-344.546875c-2.402344 7.773437-4.640625 15.730469-6.707031 23.875zm0 0" fill="#ebebf5"/><path d="m195.570312 94.390625v30.554687h180.613282c-.535156-2.230468-1.074219-4.460937-1.636719-6.679687-2.066406-8.144531-4.304687-16.101563-6.707031-23.875zm0 0" fill="#d1d1e8"/><path d="m14.957031 387.054688c.53125 2.234374 1.070313 4.460937 1.632813 6.679687 2.066406 8.144531 4.304687 16.105469 6.707031 23.878906h344.542969c2.402344-7.773437 4.640625-15.734375 6.707031-23.878906.5625-2.21875 1.101563-4.445313 1.632813-6.679687zm0 0" fill="#ebebf5"/><path d="m195.570312 417.613281h172.269532c2.402344-7.773437 4.640625-15.734375 6.707031-23.878906.5625-2.21875 1.101563-4.445313 1.632813-6.679687h-180.609376zm0 0" fill="#d1d1e8"/></svg>