<?xml version="1.0" encoding="utf-8"?>
<!-- Generator: Adobe Illustrator 21.1.0, SVG Export Plug-In . SVG Version: 6.00 Build 0)  -->
<svg version="1.1" id="Capa_1" xmlns="http://www.w3.org/2000/svg" xmlns:xlink="http://www.w3.org/1999/xlink" x="0px" y="0px"
	 viewBox="0 0 473.3 473.3" style="enable-background:new 0 0 473.3 473.3;" xml:space="preserve">
<g>
	<path d="M273.4,258.7c-1.4,0-2.6,1.2-2.6,2.6c0,1.4,1.2,2.6,2.6,2.6s2.6-1.2,2.6-2.6S274.8,258.7,273.4,258.7z M273.4,262.8
		c-0.8,0-1.5-0.7-1.5-1.5s0.7-1.5,1.5-1.5s1.5,0.7,1.5,1.5S274.2,262.8,273.4,262.8z"/>
	<path d="M295.1,258.7c-1.4,0-2.6,1.2-2.6,2.6c0,1.4,1.2,2.6,2.6,2.6s2.6-1.2,2.6-2.6S296.5,258.7,295.1,258.7z M295.1,262.8
		c-0.8,0-1.5-0.7-1.5-1.5s0.7-1.5,1.5-1.5s1.5,0.7,1.5,1.5S295.9,262.8,295.1,262.8z"/>
	<path d="M296.5,244.6c1.2,2.7,4,4.6,7.2,4.6c4.4,0,7.9-3.5,7.9-7.9c0-0.3-0.3-0.6-0.6-0.6h-2.2c-0.3-2.6-2.5-4.6-5.1-4.6
		s-4.8,2-5.1,4.6h-0.7v0c-1.8,0-3.7,0-5.5,0.1l-3.5-6.1l-0.9-4.4c-0.1-0.3-0.3-0.4-0.6-0.4h-6.3c-0.3,0-0.5,0.2-0.6,0.4l-0.9,4.4
		l-5.1,8.9c-1.8,0.5-3.5,1-5.2,1.6c-0.5,0.2-0.9,0.5-1.1,1c-0.2,0.5-0.3,1-0.1,1.5c0,0,0,0,0,0c0.3,0.8,1,1.3,1.8,1.3
		c0.2,0,0.4,0,0.6-0.1c0.4-0.1,0.8-0.3,1.2-0.4l-2.6,4.5h-3.5c-0.3,0-0.6,0.3-0.6,0.6v3.2l-1.8,1.4c-0.1,0.1-0.2,0.3-0.2,0.5v2.8
		c0,0.3,0.3,0.6,0.6,0.6h3.2c0.3,3.4,3.2,6.1,6.7,6.1c3.5,0,6.4-2.7,6.7-6.1h8.3c0.3,3.4,3.2,6.1,6.7,6.1c3.5,0,6.4-2.7,6.7-6.1h3.2
		c0.3,0,0.6-0.3,0.6-0.6v-2.8c0-0.2-0.1-0.3-0.2-0.5l-1.8-1.4v-3.2c0-0.3-0.3-0.6-0.6-0.6h-3.5l-4.8-8.3
		C295.2,244.6,295.9,244.6,296.5,244.6z M303.7,248.1c-3.5,0-6.5-2.7-6.7-6.2h13.5C310.1,245.4,307.2,248.1,303.7,248.1z
		 M303.7,237.3c2,0,3.7,1.5,4,3.4h-7.9C300,238.8,301.7,237.3,303.7,237.3z M281.5,231.1h5.4l0.7,3.3h-6.8L281.5,231.1z M273.7,253
		l3.5-6c1.6-0.4,3.1-0.7,4.7-1l-1.1,7H273.7z M283.1,245.7c0.7-0.1,1.5-0.2,2.2-0.3l1.1,7.6H282L283.1,245.7z M287.6,253l-1.2-7.7
		c1.2-0.1,2.4-0.3,3.7-0.4l4.7,8.1H287.6z M278,245.6l1.1-1.9c3.1-0.7,6.4-1.1,9.6-1.4l0.9,1.5C285.6,244.1,281.7,244.7,278,245.6z
		 M279.8,242.4l4-6.9h0.9l3.3,5.7C285.2,241.5,282.5,241.9,279.8,242.4z M270.1,247.8c-0.4,0.1-0.9-0.1-1-0.5c0,0,0,0,0,0
		c0,0,0,0,0,0c-0.1-0.2-0.1-0.4,0-0.6c0.1-0.2,0.3-0.3,0.5-0.4c1.3-0.4,2.7-0.9,4.1-1.3l-1.2,2C271.7,247.2,270.9,247.5,270.1,247.8
		z M280.5,235.5h2L272.4,253h-2L280.5,235.5z M264.1,258.8l0.9-0.7v2.7h-0.9V258.8z M273.4,266.9c-3.1,0-5.6-2.5-5.6-5.6
		c0-3.1,2.5-5.6,5.6-5.6c3.1,0,5.6,2.5,5.6,5.6C279,264.4,276.5,266.9,273.4,266.9z M295.1,266.9c-3.1,0-5.6-2.5-5.6-5.6
		c0-3.1,2.5-5.6,5.6-5.6s5.6,2.5,5.6,5.6C300.6,264.4,298.1,266.9,295.1,266.9z M304.3,258.8v2h-0.9v-2.7L304.3,258.8z M302.3,260.8
		h-0.5c-0.3-3.4-3.2-6.1-6.7-6.1c-3.5,0-6.4,2.7-6.7,6.1h-8.3c-0.3-3.4-3.2-6.1-6.7-6.1c-3.5,0-6.4,2.7-6.7,6.1h-0.5v-6.7h36.1
		V260.8z M296.1,253L286,235.5h2l10.1,17.5H296.1z M293.9,243.5L293,242c0.9,0,1.8-0.1,2.8-0.1c0,0.6,0.1,1.1,0.3,1.6
		C295.4,243.5,294.7,243.5,293.9,243.5z"/>
	<path d="M282.5,232.1c-0.1,0-0.3,0.1-0.4,0.2c-0.1,0.1-0.2,0.3-0.2,0.4s0.1,0.3,0.2,0.4c0.1,0.1,0.3,0.2,0.4,0.2
		c0.1,0,0.3-0.1,0.4-0.2c0.1-0.1,0.2-0.3,0.2-0.4s-0.1-0.3-0.2-0.4C282.8,232.2,282.6,232.1,282.5,232.1z"/>
	<path d="M286,232.1c-0.1,0-0.3,0.1-0.4,0.2c-0.1,0.1-0.2,0.3-0.2,0.4c0,0.1,0.1,0.3,0.2,0.4c0.1,0.1,0.3,0.2,0.4,0.2
		c0.1,0,0.3-0.1,0.4-0.2c0.1-0.1,0.2-0.3,0.2-0.4c0-0.1-0.1-0.3-0.2-0.4C286.3,232.2,286.1,232.1,286,232.1z"/>
	<path d="M282.5,258.7c-0.1,0-0.3,0.1-0.4,0.2c-0.1,0.1-0.2,0.3-0.2,0.4c0,0.1,0.1,0.3,0.2,0.4c0.1,0.1,0.3,0.2,0.4,0.2
		c0.1,0,0.3-0.1,0.4-0.2c0.1-0.1,0.2-0.3,0.2-0.4c0-0.1-0.1-0.3-0.2-0.4C282.8,258.7,282.6,258.7,282.5,258.7z"/>
	<path d="M286,258.7c-0.1,0-0.3,0.1-0.4,0.2c-0.1,0.1-0.2,0.3-0.2,0.4c0,0.1,0.1,0.3,0.2,0.4c0.1,0.1,0.3,0.2,0.4,0.2
		c0.1,0,0.3-0.1,0.4-0.2c0.1-0.1,0.2-0.3,0.2-0.4c0-0.1-0.1-0.3-0.2-0.4C286.3,258.7,286.1,258.7,286,258.7z"/>
</g>
</svg>
