<?xml version="1.0" encoding="iso-8859-1"?>
<!-- Generator: Adobe Illustrator 18.0.0, SVG Export Plug-In . SVG Version: 6.00 Build 0)  -->
<!DOCTYPE svg PUBLIC "-//W3C//DTD SVG 1.1//EN" "http://www.w3.org/Graphics/SVG/1.1/DTD/svg11.dtd">
<svg version="1.1" id="Capa_1" xmlns="http://www.w3.org/2000/svg" xmlns:xlink="http://www.w3.org/1999/xlink" x="0px" y="0px"
	 viewBox="0 0 436.979 436.979" style="enable-background:new 0 0 436.979 436.979;" xml:space="preserve">
<g>
	<path d="M431.479,305.655h-4.51v-48.997h4.51c3.037,0,5.5-2.462,5.5-5.5s-2.463-5.5-5.5-5.5h-4.51v-17.167
		c8.743-3.326,8.752-15.768,8.752-23.652s-0.009-20.326-8.752-23.652V104.83c0-2.614-1.84-4.867-4.401-5.389
		c-2.564-0.524-5.138,0.832-6.16,3.237l-49.149,115.578l-33.104-114.948c-0.647-2.248-2.646-3.841-4.983-3.969
		c-2.319-0.128-4.497,1.234-5.388,3.399L275.287,220.6l-51.762-117.98c-0.877-1.999-2.854-3.29-5.036-3.29
		c-2.183,0-4.16,1.291-5.037,3.29L161.691,220.6l-48.496-117.863c-0.891-2.164-3.066-3.529-5.389-3.399
		c-2.336,0.129-4.335,1.721-4.983,3.97L69.72,218.256L20.57,102.678c-1.023-2.406-3.6-3.759-6.16-3.237
		c-2.562,0.522-4.402,2.775-4.402,5.389v76.359c-8.742,3.326-8.75,15.768-8.75,23.651s0.009,20.325,8.75,23.651v17.167H5.5
		c-3.038,0-5.5,2.462-5.5,5.5s2.462,5.5,5.5,5.5h4.509v48.997H5.5c-3.038,0-5.5,2.462-5.5,5.5s2.462,5.5,5.5,5.5h4.509v15.495
		c0,3.038,2.462,5.5,5.5,5.5h405.96c3.037,0,5.5-2.462,5.5-5.5v-15.495h4.51c3.037,0,5.5-2.462,5.5-5.5
		S434.516,305.655,431.479,305.655z M415.969,284.66h-5.014c-0.934,0-1.807-0.361-2.483-1.042c-0.655-0.651-1.017-1.524-1.017-2.458
		c0-1.93,1.57-3.5,3.5-3.5h5.014V284.66z M421.989,191.34c0.892,0,1.225,0,1.773,1.729c0.885,2.787,0.959,7.537,0.959,11.771
		s-0.074,8.984-0.959,11.771c-0.549,1.729-0.882,1.729-1.773,1.729c-4.528,0-8.5-6.308-8.5-13.5S417.46,191.34,421.989,191.34z
		 M14.99,218.34c-0.891,0-1.225,0-1.773-1.729c-0.884-2.786-0.958-7.537-0.958-11.771s0.074-8.985,0.958-11.771
		c0.549-1.729,0.882-1.729,1.773-1.729c4.528,0,8.5,6.308,8.5,13.5S19.518,218.34,14.99,218.34z M21.009,228.19
		c7.901-3.118,13.481-12.263,13.481-23.35s-5.581-20.233-13.481-23.35v-49.672l44.648,104.994c0.912,2.142,3.073,3.48,5.396,3.337
		c2.324-0.141,4.307-1.731,4.951-3.968l33.023-114.666l47.416,115.237c0.84,2.04,2.817,3.381,5.023,3.407
		c2.227,0.029,4.214-1.27,5.1-3.29l51.923-118.35l51.924,118.35c0.877,2.001,2.854,3.29,5.036,3.29c0.021,0,0.042,0,0.063,0
		c2.206-0.026,4.184-1.367,5.022-3.407l47.416-115.237l33.023,114.666c0.645,2.237,2.627,3.826,4.951,3.968
		c0.112,0.007,0.224,0.01,0.336,0.01c2.193,0,4.192-1.309,5.06-3.348l44.648-104.994v49.672c-7.9,3.118-13.48,12.263-13.48,23.35
		s5.58,20.232,13.48,23.35v17.468H21.009V228.19z M21.009,277.66h5.01c1.93,0,3.5,1.57,3.5,3.5c0,0.934-0.361,1.807-1.041,2.483
		c-0.652,0.656-1.525,1.017-2.459,1.017h-5.01V277.66z M21.009,295.66h5.01c3.884,0,7.528-1.514,10.237-4.239
		c2.749-2.732,4.263-6.376,4.263-10.261c0-7.995-6.505-14.5-14.5-14.5h-5.01v-10.002h394.96v10.002h-5.014
		c-7.995,0-14.5,6.505-14.5,14.5c0,3.886,1.515,7.53,4.238,10.236c2.731,2.75,6.376,4.264,10.262,4.264h5.014v9.995H21.009V295.66z
		 M415.969,326.65H21.009v-9.995h394.96V326.65z"/>
	<path d="M231.274,266.657h-25.569c-7.995,0-14.5,6.504-14.5,14.5s6.504,14.5,14.5,14.5h25.569c7.995,0,14.5-6.504,14.5-14.5
		S239.269,266.657,231.274,266.657z M231.274,284.656h-25.569c-1.93,0-3.5-1.57-3.5-3.5s1.57-3.5,3.5-3.5h25.569
		c1.93,0,3.5,1.57,3.5,3.5S233.204,284.656,231.274,284.656z"/>
	<path d="M147.895,266.657h-14.999c-7.995,0-14.5,6.504-14.5,14.5s6.505,14.5,14.5,14.5h14.999c7.995,0,14.5-6.504,14.5-14.5
		S155.89,266.657,147.895,266.657z M147.895,284.656h-14.999c-1.93,0-3.5-1.57-3.5-3.5s1.57-3.5,3.5-3.5h14.999
		c1.93,0,3.5,1.57,3.5,3.5S149.825,284.656,147.895,284.656z"/>
	<path d="M81.168,266.657H71.083c-7.995,0-14.5,6.504-14.5,14.5s6.505,14.5,14.5,14.5h10.086c7.995,0,14.5-6.504,14.5-14.5
		S89.164,266.657,81.168,266.657z M81.168,284.656H71.083c-1.93,0-3.5-1.57-3.5-3.5s1.57-3.5,3.5-3.5h10.086
		c1.93,0,3.5,1.57,3.5,3.5S83.098,284.656,81.168,284.656z"/>
	<path d="M304.079,266.657H289.08c-7.995,0-14.499,6.504-14.499,14.5s6.504,14.5,14.499,14.5h14.999c7.995,0,14.5-6.504,14.5-14.5
		S312.074,266.657,304.079,266.657z M304.079,284.656H289.08c-1.93,0-3.499-1.57-3.499-3.5s1.569-3.5,3.499-3.5h14.999
		c1.93,0,3.5,1.57,3.5,3.5S306.008,284.656,304.079,284.656z"/>
	<path d="M365.892,266.657h-10.086c-7.995,0-14.499,6.504-14.499,14.5s6.504,14.5,14.499,14.5h10.086c7.995,0,14.5-6.504,14.5-14.5
		S373.887,266.657,365.892,266.657z M365.892,284.656h-10.086c-1.93,0-3.499-1.57-3.499-3.5s1.569-3.5,3.499-3.5h10.086
		c1.93,0,3.5,1.57,3.5,3.5S367.822,284.656,365.892,284.656z"/>
	<path d="M218.489,180.34c-13.509,0-24.5,10.991-24.5,24.5s10.991,24.5,24.5,24.5s24.5-10.991,24.5-24.5
		S231.999,180.34,218.489,180.34z M218.489,218.34c-7.444,0-13.5-6.056-13.5-13.5s6.056-13.5,13.5-13.5s13.5,6.056,13.5,13.5
		S225.933,218.34,218.489,218.34z"/>
	<path d="M113.281,180.34c-12.591,0-22.835,10.991-22.835,24.5s10.244,24.5,22.835,24.5s22.835-10.991,22.835-24.5
		S125.873,180.34,113.281,180.34z M113.281,218.34c-6.526,0-11.835-6.056-11.835-13.5s5.309-13.5,11.835-13.5
		s11.835,6.056,11.835,13.5S119.807,218.34,113.281,218.34z"/>
	<path d="M323.698,180.34c-12.591,0-22.835,10.991-22.835,24.5s10.244,24.5,22.835,24.5s22.835-10.991,22.835-24.5
		S336.289,180.34,323.698,180.34z M323.698,218.34c-6.525,0-11.835-6.056-11.835-13.5s5.31-13.5,11.835-13.5
		s11.835,6.056,11.835,13.5S330.223,218.34,323.698,218.34z"/>
</g>
<g>
</g>
<g>
</g>
<g>
</g>
<g>
</g>
<g>
</g>
<g>
</g>
<g>
</g>
<g>
</g>
<g>
</g>
<g>
</g>
<g>
</g>
<g>
</g>
<g>
</g>
<g>
</g>
<g>
</g>
</svg>
