<?xml version="1.0" encoding="utf-8"?>
<!-- Generator: Adobe Illustrator 21.1.0, SVG Export Plug-In . SVG Version: 6.00 Build 0)  -->
<svg version="1.1" xmlns="http://www.w3.org/2000/svg" xmlns:xlink="http://www.w3.org/1999/xlink" x="0px" y="0px"
	 viewBox="0 0 512 512" style="enable-background:new 0 0 512 512;" xml:space="preserve">
<style type="text/css">
	.st0{fill:#666666;stroke:url(#SVGID_1_);stroke-miterlimit:10;}
	.st1{fill:#262626;}
</style>
<g id="Слой_2">
	<linearGradient id="SVGID_1_" gradientUnits="userSpaceOnUse" x1="117.1127" y1="256.4704" x2="395.5069" y2="256.4704">
		<stop  offset="0" style="stop-color:#FFFFFF"/>
		<stop  offset="0.2492" style="stop-color:#F2F1F0"/>
		<stop  offset="0.7256" style="stop-color:#CFCDC9"/>
		<stop  offset="1" style="stop-color:#B9B6B0"/>
		<stop  offset="1" style="stop-color:#918E8A"/>
		<stop  offset="1" style="stop-color:#2B2A29"/>
		<stop  offset="1" style="stop-color:#000000"/>
	</linearGradient>
	<path class="st0" d="M353,511l-162.5-2.5c-50,5-17-19-4-200l-46-63l-15-80l-7-71c-5.6-58,15-89,60-56c14.4,10.5-4-29,36-33l32,21
		L279,2c10.9,5.2,31.4,26.1,32,41c1,23,6.4-29,45-14c36,14-1,89,33,102l6,66l-14,45l-26,15c-15.9,9.3-15.7,43.5-11,86
		C352,415,368,498,353,511z"/>
</g>
<g id="Слой_3">
	<polygon class="st1" points="168.3,513.5 259.3,512.6 329.3,511.8 359.3,511.5 339.3,360.5 326,388 287,323 263,304 238,323 
		202,385 183,358 174.6,439.4 	"/>
</g>
<g id="Слой_1">
	<path d="M380.7,117.1V65.3c0-25.2-16.8-45.8-37.3-45.8h-1.2c-10.4,0-19.8,5.2-26.5,13.6C311.1,14,296.7,0,279.7,0h-1.2
		c-13,0-24.5,8.2-31.2,20.7C240.6,8.2,229.1,0,216.1,0h-1.2c-17,0-31.4,14-35.9,33.2c-6.8-8.4-16.2-13.6-26.6-13.6h-1.2
		c-20.6,0-37.3,20.5-37.3,45.8v79.4c0,14.3,5.3,27.1,13.6,35.6v5c0,46.1,15.7,79,28.9,98.5c10.2,15,20.4,24.6,25.6,28.9l-22.4,179.1
		c-0.6,5.1,0.6,10.2,3.3,14.1c2.7,3.9,6.7,6.1,10.8,6.1h108.5c3.4,0,6.1-3.4,6.1-7.5c0-4.1-2.7-7.5-6.1-7.5H173.8
		c-0.8,0-1.3-0.5-1.5-0.9c-0.2-0.3-0.6-1-0.5-2l15.6-124.6c1.1,2.9,2.2,5.9,3.1,9c1.5,5.1,5.1,8.5,9.5,9c0.4,0,0.7,0.1,1.1,0.1
		c4,0,7.6-2.5,9.6-6.8c20-41.9,39.6-66.9,52.4-66.9s32.4,25,52.4,66.9c2.2,4.6,6.3,7.2,10.7,6.7c4.4-0.5,8-4,9.5-9
		c1.2-4,2.5-7.9,4.1-11.6l14.9,127.3c0.1,1-0.2,1.7-0.5,2c-0.2,0.3-0.7,0.9-1.5,0.9c-0.1,0-0.2,0-0.3,0c-0.1,0-0.2,0-0.3,0h-46.8
		c-3.4,0-6.1,3.4-6.1,7.5s2.7,7.5,6.1,7.5h46.8c0.1,0,0.2,0,0.3,0c0.1,0,0.2,0,0.3,0c4.1,0,8.1-2.2,10.8-6c2.7-3.8,3.9-8.9,3.3-13.9
		L350.2,351c0,0,0,0,0-0.1l-6.6-56.4c0.2-17.9,9.5-33.8,23.3-39.7c18.9-8.1,31.5-29.9,31.5-54.4v-55.7
		C398.4,131.3,390.8,120.1,380.7,117.1z M342.2,34.5h1.2c13.8,0,25.1,13.8,25.1,30.8v51h-51.4v-51C317.1,48.3,328.3,34.5,342.2,34.5
		z M189.8,45.7c0-17,11.3-30.7,25.1-30.7h1.2c13.8,0,25.1,13.8,25.1,30.7v21.2c0,4.1,2.7,7.5,6.1,7.5c3.4,0,6.1-3.4,6.1-7.5V45.7
		c0-17,11.3-30.7,25.1-30.7h1.2c13.8,0,25.1,13.8,25.1,30.7v70.5h-16.1c-8.3,0-15.7,5.2-19.9,13.9c-3.3,6.9-4.1,14.9-2.3,22.3
		c-7.8-5.4-13.1-15.6-13.1-27.4V94.9c0-4.1-2.7-7.5-6.1-7.5c-3.4,0-6.1,3.4-6.1,7.5v30.2c0,17.3-11.5,31.5-25.7,31.5
		c-14.2,0-25.7-14.1-25.7-31.5V45.7z M126.2,65.3c0-17,11.3-30.8,25.1-30.8h1.2c13.8,0,25.1,13.8,25.1,30.8v79.4
		c0,17.3-11.5,31.5-25.7,31.5c-14.2,0-25.7-14.1-25.7-31.5V65.3z M386.2,200.4c0,18.1-9.4,34.3-23.3,40.2
		c-18.9,8.1-31.5,29.9-31.5,54.4c0,0.4,0,0.7,0.1,1.1l5.8,49.8c-1.5,1.1-2.9,2.6-3.9,4.5c-3.4,6.4-6.3,13.3-8.5,20.5
		C308.7,337.5,285.2,299,263,299c-22.2,0-45.6,38.5-61.8,71.9c-2.3-7.2-5.1-14-8.5-20.5c-0.7-1.3-1.5-2.4-2.5-3.3l4.6-36.9
		c0.4-3.1-0.8-6.1-3-7.6c-0.5-0.4-50.5-36.6-52-113.8c3.8,1.6,7.8,2.4,12,2.4c17.3,0,31.9-14.2,36.4-33.6
		c6.9,8.7,16.5,14.1,27.2,14.1c13.3,0,25-8.4,31.8-21.2c6.2,11.7,16.7,19.8,28.6,21c3.5,4.9,7.4,9.3,11.7,13
		c-19.3,4.7-33.9,25.6-33.9,50.7c0,4.1,2.7,7.5,6.1,7.5c3.4,0,6.1-3.4,6.1-7.5c0-20.2,13.4-36.7,29.9-36.7h46.7
		c3.4,0,6.1-3.4,6.1-7.5c0-4.1-2.7-7.5-6.1-7.5h-18.6c-15.4,0-29.8-8.5-39.5-22.7c-0.4-0.9-0.9-1.7-1.5-2.3
		c-1.4-2.3-2.7-4.8-3.9-7.4c-1.9-4.2-1.8-9.1,0.1-13.2c2-4.1,5.5-6.6,9.4-6.6h86.5c6.1,0,11,6,11,13.5V200.4z"/>
</g>
</svg>
