<?xml version="1.0" encoding="utf-8"?>
<!-- Generator: Adobe Illustrator 21.1.0, SVG Export Plug-In . SVG Version: 6.00 Build 0)  -->
<svg version="1.1" xmlns="http://www.w3.org/2000/svg" xmlns:xlink="http://www.w3.org/1999/xlink" x="0px" y="0px"
	 viewBox="0 0 453.9 453.9" style="enable-background:new 0 0 453.9 453.9;" xml:space="preserve">
<style type="text/css">
	.st0{fill:#9E9E9E;}
	.st1{fill:#6D6D6D;}
	.st2{fill:url(#SVGID_1_);}
</style>
<g id="Слой_3">
	<path class="st0" d="M164.7,158l-2.2-57.5l-14.2,1.8l-1.7,18.7l-20-1.3l-0.3-19.2H99l-2.7,20.2L78,121.3l-2.7-19.7L44.7,100l0.3,21
		H25.3l-2-19.7l-15.8-0.8v59.2l15.8,24.7l-1,80.3l130,1L150,179L164.7,158z M89.8,221.3c-0.4,0.2-4.6,0.2-6.3,0.1
		c-1.3,0.1-2.7,0.2-3.7-0.3c-1.5-0.7-1.4-2.6-1.3-4c0.3-4.1,2.2-8,2.4-12.1c0-0.2,7,0.1,7,0c0,0.1,0,0.3-0.1,0.5c1.1,0,2,0,2.1,0.1
		c0.1,0.2,0.1,0.4,0.2,0.6c0.9,0,1.5,0,1.5,0c0,2.8,0.3,5.7,0.3,8.5C91.8,216.6,92,220.6,89.8,221.3z"/>
	<path class="st0" d="M446.3,158.3l-2.2-57.5l-14.2,1.8l-1.7,18.7l-20-1.3l-0.3-19.2h-27.3L378,121l-18.3,0.7L357,102l-30.7-1.7
		l0.3,21H307l-2-19.7l-15.8-0.8V160l15.8,24.7l-1,80.3l130,1l-2.3-86.7L446.3,158.3z M371.5,221.7c-0.4,0.2-4.6,0.2-6.3,0.1
		c-1.3,0.1-2.7,0.2-3.7-0.3c-1.5-0.7-1.4-2.6-1.3-4c0.3-4.1,2.2-8,2.4-12.1c0-0.2,7,0.1,7,0c0,0.1,0,0.3-0.1,0.5c1.1,0,2,0,2.1,0.1
		c0.1,0.2,0.1,0.4,0.2,0.6c0.9,0,1.5,0,1.5,0c0,2.8,0.3,5.7,0.3,8.5C373.4,216.9,373.6,220.9,371.5,221.7z"/>
</g>
<g id="Слой_2">
	<g>
		<path class="st1" d="M300,263.5l-20.8,2.8l-10-16c0,0-31-5.3-31.8-8.5c-0.5-2.3-12.8-1.8-18.8-1.5c-0.2,0-7.7,11.8-7.8,11.5
			c-0.2-3.7-27-11.8-26.5,2.3c0.6,15.7-31,9-31,9l-1.3-58l26.5-0.8l2.8-17l28.5-0.8l11.8,16.5l16.5,1.3l5.8-17.8l25-0.3l6,18.5
			l25.8,2.8L300,263.5z"/>
		<path d="M307.5,179.7c-3.7,0-7.6,0-10-0.1c-3,0.1-5.4,2.5-5.4,5.5v15.3H280v-15.3c0-3-2.5-5.5-5.5-5.5h-35.1c-3,0-5.5,2.5-5.5,5.5
			v15.3h-12.2v-15.3c0-3-2.5-5.5-5.5-5.5h-35.1c-3,0-5.5,2.5-5.5,5.5v15.3h-12.2v-15.3c0-2.7-1.9-4.9-4.4-5.4
			c-1.8,0-3.5,0.1-5.1,0.1c0.2,4.7-0.1,9.3-1.4,13.6v12.5c0,3,2.5,5.5,5.5,5.5h23.2c3,0,5.5-2.5,5.5-5.5v-15.3h24.1v15.3
			c0,3,2.5,5.5,5.5,5.5h23.2c3,0,5.5-2.5,5.5-5.5v-15.3H269v15.3c0,3,2.5,5.5,5.5,5.5h23.2c3,0,5.5-2.5,5.5-5.5v-15.3h5.3
			C307.6,187.2,307.5,183.4,307.5,179.7z"/>
		<path d="M181,217h-13c-3,0-5.5,2.5-5.5,5.5s2.5,5.5,5.5,5.5h13c3,0,5.5-2.5,5.5-5.5S184.1,217,181,217z"/>
		<path d="M181,217h-13c-3,0-5.5,2.5-5.5,5.5s2.5,5.5,5.5,5.5h13c3,0,5.5-2.5,5.5-5.5S184.1,217,181,217z"/>
		<path d="M286.4,217.7h-13c-3,0-5.5,2.5-5.5,5.5s2.5,5.5,5.5,5.5h13c3,0,5.5-2.5,5.5-5.5S289.4,217.7,286.4,217.7z"/>
		<path d="M260.3,248.5c-0.7-7.6-7.1-13.5-15-13.5h-35.6c-8,0-14.6,6.2-15,14c6.3-0.1,16.5-0.3,16.6,0.3c1.1,5.1,0.9,10.2,0.3,15.3
			h9.7v-3.4c-0.9,0-1.5,0-1.5,0v-17.4c0,0,0.1,0,0.3,0v-0.5c0,0,4.2-0.1,6.9,0c2.7,0,7,0,7,0v0.1c0.4,0,0.6,0,0.6,0v1.1
			c0,0,0,0-0.1,0c-0.3,3-0.4,6-0.5,9v11h7.5c0.5-5.3,1.2-10.6,0.9-16C242.2,248.9,250.8,248.7,260.3,248.5z"/>
	</g>
</g>
<g id="Capa_1">
	<g>
		<linearGradient id="SVGID_1_" gradientUnits="userSpaceOnUse" x1="226.5" y1="245.01" x2="226.5" y2="425.51">
			<stop  offset="0" style="stop-color:#FFFFFF"/>
			<stop  offset="0.1396" style="stop-color:#D5D5D5"/>
			<stop  offset="0.4579" style="stop-color:#7B7B7B"/>
			<stop  offset="0.717" style="stop-color:#393939"/>
			<stop  offset="0.9039" style="stop-color:#101010"/>
			<stop  offset="1" style="stop-color:#000000"/>
		</linearGradient>
		<path class="st2" d="M447.5,425.5l-180.2-5.2c0.3-14.9,1.9-23.6,0.3-47c-3.3-12-11-39-14.3-40.3c-3.3-1.3-34-7.3-34-7.3L194.7,341
			c-3,0.6-5,13.2-7.3,21c-0.1-2.7,1.1,40.8,1.7,63.5H5.5v-178L39,247l0.3,21h21.3l6.3-19l29,0.3l4.7,17.3l20-1l0.7-18l35-0.7
			l1.3,20.3l23.3-0.7l-0.7-21l34-0.7l0.3,22.3l23-0.3l1-21.7l33.7-0.3v23l23.3-0.7v-22l35,0.3l1.7,21.2l23-1.2l-0.7-19.3H389l5,21.5
			h17.3l2-21.5l34.2,1.2V425.5z"/>
		<path d="M448.4,240.6h-10.6l-2.5-56.7l14.6-23c0.6-0.9,0.9-1.9,0.9-2.9v-56.5c0-3-2.5-5.5-5.5-5.5H430c-3,0-5.5,2.5-5.5,5.5v14.3
			h-10.8v-14.3c0-3-2.5-5.5-5.5-5.5h-30.4c-3,0-5.5,2.5-5.5,5.5v14.3h-9.7v-14.3c0-3-2.5-5.5-5.5-5.5h-30.4c-3,0-5.5,2.5-5.5,5.5
			v14.3h-10.8v-14.3c0-3-2.5-5.5-5.5-5.5h-15.2c-3,0-5.5,2.5-5.5,5.5V158c0,1,0.3,2.1,0.9,2.9l14.6,23l-2.5,56.7h-0.2
			c-3,0-5.5,2.5-5.5,5.5v15.3h-12.2v-15.3c0-3-2.5-5.5-5.5-5.5h-35.1c-3,0-5.5,2.5-5.5,5.5v15.3h-12.2v-15.3c0-3-2.5-5.5-5.5-5.5
			h-35.1c-3,0-5.5,2.5-5.5,5.5v15.3h-12.2v-15.3c0-3-2.5-5.5-5.5-5.5h-0.2l-2.5-56.7l14.6-23c0.6-0.9,0.9-1.9,0.9-2.9v-56.5
			c0-3-2.5-5.5-5.5-5.5h-15.2c-3,0-5.5,2.5-5.5,5.5v14.3h-10.8v-14.3c0-3-2.5-5.5-5.5-5.5H96.9c-3,0-5.5,2.5-5.5,5.5v14.3h-9.7
			v-14.3c0-3-2.5-5.5-5.5-5.5H45.7c-3,0-5.5,2.5-5.5,5.5v14.3H29.4v-14.3c0-3-2.5-5.5-5.5-5.5H8.7c-3,0-5.5,2.5-5.5,5.5V158
			c0,1,0.3,2.1,0.9,2.9l14.6,23l-2.5,56.7H5.5c-3,0-5.5,2.5-5.5,5.5v178.3c0,3,2.5,5.5,5.5,5.5h181.4h80h181.4c3,0,5.5-2.5,5.5-5.5
			V246.1C453.9,243.1,451.4,240.6,448.4,240.6z M426.6,176.9H308.1l-8.6-13.5h135.7L426.6,176.9z M299.2,107v14.3
			c0,3,2.5,5.5,5.5,5.5h21.8c3,0,5.5-2.5,5.5-5.5V107h19.4v14.3c0,3,2.5,5.5,5.5,5.5h20.7c3,0,5.5-2.5,5.5-5.5V107h19.4v14.3
			c0,3,2.5,5.5,5.5,5.5H430c3,0,5.5-2.5,5.5-5.5V107h4.2v45.5H295V107H299.2z M310.3,187.9h114.1l2.4,52.7h-13.5
			c-3,0-5.5,2.5-5.5,5.5v15.3h-12.2v-15.3c0-3-2.5-5.5-5.5-5.5H355c-3,0-5.5,2.5-5.5,5.5v15.3h-12.2v-15.3c0-3-2.5-5.5-5.5-5.5
			h-23.9L310.3,187.9z M145.8,176.9H27.2l-8.6-13.5h135.7L145.8,176.9z M18.4,107v14.3c0,3,2.5,5.5,5.5,5.5h21.8
			c3,0,5.5-2.5,5.5-5.5V107h19.4v14.3c0,3,2.5,5.5,5.5,5.5h20.7c3,0,5.5-2.5,5.5-5.5V107h19.4v14.3c0,3,2.5,5.5,5.5,5.5h21.8
			c3,0,5.5-2.5,5.5-5.5V107h4.2v45.5H14.2V107H18.4z M29.5,187.9h114.1l2.4,52.7H122c-3,0-5.5,2.5-5.5,5.5v15.3h-12.2v-15.3
			c0-3-2.5-5.5-5.5-5.5H63.8c-3,0-5.5,2.5-5.5,5.5v15.3H46.1v-15.3c0-3-2.5-5.5-5.5-5.5H27.1L29.5,187.9z M279.4,418.9h-7v-53.4
			c0-25.1-20.4-45.5-45.5-45.5s-45.5,20.4-45.5,45.5v53.4h-7v-53.4c0-28.9,23.6-52.5,52.5-52.5s52.5,23.6,52.5,52.5V418.9z
			 M192.4,418.9v-53.4c0-19,15.5-34.5,34.5-34.5s34.5,15.5,34.5,34.5v53.4H192.4z M442.9,418.9H290.4v-53.4
			c0-35-28.5-63.5-63.5-63.5s-63.5,28.5-63.5,63.5v53.4H11V251.6h24.1v15.3c0,3,2.5,5.5,5.5,5.5h23.2c3,0,5.5-2.5,5.5-5.5V263v-11.4
			h24.1v15.3c0,3,2.5,5.5,5.5,5.5H122c3,0,5.5-2.5,5.5-5.5v-15.3h24.1v15.3c0,3,2.5,5.5,5.5,5.5h23.2c3,0,5.5-2.5,5.5-5.5v-15.3
			h24.1v15.3c0,3,2.5,5.5,5.5,5.5h23.2c3,0,5.5-2.5,5.5-5.5v-15.3h24.1v15.3c0,3,2.5,5.5,5.5,5.5h23.2c3,0,5.5-2.5,5.5-5.5v-15.3
			h24.1v15.3c0,3,2.5,5.5,5.5,5.5H355c3,0,5.5-2.5,5.5-5.5v-15.3h24.1v15.3c0,3,2.5,5.5,5.5,5.5h23.2c3,0,5.5-2.5,5.5-5.5v-15.3
			h24.1L442.9,418.9L442.9,418.9z"/>
		<path d="M77.5,232h18c3,0,5.5-2.5,5.5-5.5v-18c0-8-6.5-14.5-14.5-14.5S72,200.5,72,208.5v18C72,229.5,74.5,232,77.5,232z
			 M83,208.5c0-1.9,1.6-3.5,3.5-3.5s3.5,1.6,3.5,3.5V221h-7V208.5z"/>
		<path d="M62.9,317.5v-18c0-8-6.5-14.5-14.5-14.5s-14.5,6.5-14.5,14.5v18c0,3,2.5,5.5,5.5,5.5h18C60.5,323,62.9,320.5,62.9,317.5z
			 M51.9,312h-7v-12.5c0-1.9,1.6-3.5,3.5-3.5s3.5,1.6,3.5,3.5V312z"/>
		<path d="M147.4,285c-8,0-14.5,6.5-14.5,14.5v18c0,3,2.5,5.5,5.5,5.5h18c3,0,5.5-2.5,5.5-5.5v-18C161.9,291.5,155.4,285,147.4,285z
			 M150.9,312h-7v-12.5c0-1.9,1.6-3.5,3.5-3.5s3.5,1.6,3.5,3.5V312z"/>
		<path d="M306.4,285c-8,0-14.5,6.5-14.5,14.5v18c0,3,2.5,5.5,5.5,5.5h18c3,0,5.5-2.5,5.5-5.5v-18C320.9,291.5,314.4,285,306.4,285z
			 M309.9,312h-7v-12.5c0-1.9,1.6-3.5,3.5-3.5s3.5,1.6,3.5,3.5V312z"/>
		<path d="M405.4,285c-8,0-14.5,6.5-14.5,14.5v18c0,3,2.5,5.5,5.5,5.5h18c3,0,5.5-2.5,5.5-5.5v-18C419.9,291.5,413.4,285,405.4,285z
			 M408.9,312h-7v-12.5c0-1.9,1.6-3.5,3.5-3.5s3.5,1.6,3.5,3.5V312z"/>
		<path d="M358.3,232h18c3,0,5.5-2.5,5.5-5.5v-18c0-8-6.5-14.5-14.5-14.5s-14.5,6.5-14.5,14.5v18C352.8,229.5,355.3,232,358.3,232z
			 M363.8,208.5c0-1.9,1.6-3.5,3.5-3.5s3.5,1.6,3.5,3.5V221h-7V208.5z"/>
		<path d="M69.9,358.5c0-3-2.5-5.5-5.5-5.5h-13c-3,0-5.5,2.5-5.5,5.5s2.5,5.5,5.5,5.5h13C67.4,364,69.9,361.5,69.9,358.5z"/>
		<path d="M76.4,368h-13c-3,0-5.5,2.5-5.5,5.5s2.5,5.5,5.5,5.5h13c3,0,5.5-2.5,5.5-5.5S79.4,368,76.4,368z"/>
		<path d="M360.4,318c3,0,5.5-2.5,5.5-5.5s-2.5-5.5-5.5-5.5h-13c-3,0-5.5,2.5-5.5,5.5s2.5,5.5,5.5,5.5H360.4z"/>
		<path d="M401.9,370.5c0,3,2.5,5.5,5.5,5.5h13c3,0,5.5-2.5,5.5-5.5s-2.5-5.5-5.5-5.5h-13C404.3,365,401.9,367.5,401.9,370.5z"/>
		<path d="M380.4,385h-13c-3,0-5.5,2.5-5.5,5.5s2.5,5.5,5.5,5.5h13c3,0,5.5-2.5,5.5-5.5S383.4,385,380.4,385z"/>
		<path d="M362.4,398h-13c-3,0-5.5,2.5-5.5,5.5s2.5,5.5,5.5,5.5h13c3,0,5.5-2.5,5.5-5.5S365.4,398,362.4,398z"/>
		<path d="M193.4,287h-13c-3,0-5.5,2.5-5.5,5.5s2.5,5.5,5.5,5.5h13c3,0,5.5-2.5,5.5-5.5S196.4,287,193.4,287z"/>
		<path d="M52.4,210c3,0,5.5-2.5,5.5-5.5s-2.5-5.5-5.5-5.5h-11c-3,0-5.5,2.5-5.5,5.5s2.5,5.5,5.5,5.5H52.4z"/>
		<path d="M117.4,229h11c3,0,5.5-2.5,5.5-5.5s-2.5-5.5-5.5-5.5h-11c-3,0-5.5,2.5-5.5,5.5S114.3,229,117.4,229z"/>
		<path d="M398.4,215h11c3,0,5.5-2.5,5.5-5.5s-2.5-5.5-5.5-5.5h-11c-3,0-5.5,2.5-5.5,5.5S395.3,215,398.4,215z"/>
		<path d="M378.4,146h11c3,0,5.5-2.5,5.5-5.5c0-3-2.5-5.5-5.5-5.5h-11c-3,0-5.5,2.5-5.5,5.5C372.9,143.5,375.3,146,378.4,146z"/>
		<path d="M104.4,147h11c3,0,5.5-2.5,5.5-5.5c0-3-2.5-5.5-5.5-5.5h-11c-3,0-5.5,2.5-5.5,5.5C98.9,144.5,101.3,147,104.4,147z"/>
	</g>
</g>
</svg>
