<?xml version="1.0" encoding="utf-8"?>
<!-- Generator: Adobe Illustrator 21.1.0, SVG Export Plug-In . SVG Version: 6.00 Build 0)  -->
<svg version="1.1" xmlns="http://www.w3.org/2000/svg" xmlns:xlink="http://www.w3.org/1999/xlink" x="0px" y="0px"
	 viewBox="0 0 453.9 453.9" style="enable-background:new 0 0 453.9 453.9;" xml:space="preserve">
<style type="text/css">
	.st0{fill:url(#SVGID_1_);stroke:#000000;stroke-miterlimit:10;}
	.st1{fill:url(#SVGID_2_);stroke:#000000;stroke-miterlimit:10;}
	.st2{fill:#937A5A;}
</style>
<g id="Слой_2">
	<linearGradient id="SVGID_1_" gradientUnits="userSpaceOnUse" x1="368.5833" y1="64.01" x2="368.5833" y2="232.01">
		<stop  offset="0" style="stop-color:#FAFAF9"/>
		<stop  offset="0" style="stop-color:#FFFFFF"/>
		<stop  offset="8.612621e-02" style="stop-color:#F2EEE9"/>
		<stop  offset="0.3137" style="stop-color:#D2C5B4"/>
		<stop  offset="0.5266" style="stop-color:#BAA48B"/>
		<stop  offset="0.7185" style="stop-color:#A88D6D"/>
		<stop  offset="0.8828" style="stop-color:#9D7F5A"/>
		<stop  offset="1" style="stop-color:#997A54"/>
	</linearGradient>
	<path class="st0" d="M446.8,66.5L431.3,66l-2,19h-21l1.5-19l-31-0.5L378.3,85l-20-1.5l0.5-18.5l-32-1v19.5l-21,0.5V66h-15.5l1.5,55
		l14.5,27.5l-2,61.5l28,0.3l2.3,20.7l22,0.7L357,210l33.7,0.3l1,21.7l22.7-0.7l2-21.3l18-0.5l-3.5-61l16-33V66.5z M369.8,187.3
		c-0.4,0.3-7,0.1-7,0c-1.6-6.1,0.5-12.5,1-18.7c0-0.2,7,0.1,7,0c0,0.4-0.1,0.9-0.1,1.3c0.8,0,1.5,0,1.5,0
		C372.2,174.5,374.1,184.2,369.8,187.3z"/>
	<linearGradient id="SVGID_2_" gradientUnits="userSpaceOnUse" x1="86.5833" y1="64.01" x2="86.5833" y2="231.51">
		<stop  offset="0" style="stop-color:#FAFAF9"/>
		<stop  offset="0" style="stop-color:#FFFFFF"/>
		<stop  offset="8.612621e-02" style="stop-color:#F2EEE9"/>
		<stop  offset="0.3137" style="stop-color:#D2C5B4"/>
		<stop  offset="0.5266" style="stop-color:#BAA48B"/>
		<stop  offset="0.7185" style="stop-color:#A88D6D"/>
		<stop  offset="0.8828" style="stop-color:#9D7F5A"/>
		<stop  offset="1" style="stop-color:#997A54"/>
	</linearGradient>
	<path class="st1" d="M164.8,66.5L149.3,66l-2,19h-21l1.5-19l-31-0.5L96.3,85l-20-1.5L76.8,65l-32-1v19.5l-21,0.5V66H8.3l1.5,55
		l14.5,27.5l-2,61.5l18.2-0.3v21l22,0.8l0.8-21.8L97,210l2,21.5l21.3-0.3l1.5-21.5l30.6-0.2l-3.5-61l16-33V66.5z M87.8,187.3
		c-0.4,0.3-7,0.1-7,0c-1.6-6.1,0.5-12.5,1-18.7c0-0.2,7,0.1,7,0c0,0.4-0.1,0.9-0.1,1.3c0.8,0,1.5,0,1.5,0
		C90.2,174.5,92.1,184.2,87.8,187.3z"/>
</g>
<g id="Capa_1">
	<g>
		<path class="st2" d="M414.5,211.5l-3,19h-21l-2-19.5h-35l0.5,20.5l-22.5-0.5l0.8-20.7L298,211l-1,20.5l-22.5,1l-1-21.5l-34.5-0.5
			l-1,21.5l-22.5-0.5l-2-20l-31.5,1l-3.5,19.5H156l1-19.5l-33.7,0.3l-1.8,19.2L98,233.5v-21l-33.2,0.8L62,232.5l-23.5,1V213
			l-32.2,0.5v180h443.3v-180L414.5,211.5z M58.5,280.5c0,0.2-20,0.1-20,0v-23c0-0.2,20-0.1,20,0V280.5z M157,277.5
			c0,0.6-20-0.3-20,0c0.4-6.7-0.1-13.4-1.5-20c0.1,0.3,9.2-0.1,10-0.1c0.8,0,9.9-0.3,10,0.1C156.9,264.1,157.4,270.8,157,277.5z
			 M266,384c0,0.1-10.6,0.6-20.5,0.5c-0.5,1.1-8,1.8-8.9,2.6c-4,3.2-14,0.4-18.6,0.4c-7.3,0-12.6,1.5-19.9,1c-1.8-0.1-3.5-0.2-5.2-1
			c-3.4-1.6-4.7-5.2-5.3-8.7c-1.8-11.7-2.5-24.2-2.2-35.9c0.2-6.3,1.2-12.8,2.5-19c0.9-4.7,2.9-11.5,5.5-15.5
			c2.3-3.6,5.5-7.9,9-10.5c1-0.7,2.9-0.6,4-1c0-1.6,1.2-0.4,1.5-2c1.3-6.6,35.5-8.1,34,0c-0.2,1,2.5,0.6,4,0.9
			c-0.3-0.2-0.6-0.4-0.5-0.4c2.2,0.1,3.7,2.7,5.5,4c3.3,2.3,7.6,5.5,9.5,9c5.4,9.9,5.1,20.7,6,32.5C267.6,355.3,265.8,369.7,266,384
			z M317,278c-0.1-0.8-19.8,1.1-20,0c-1-6.3-1-12.7,0-19c0.2-1.2,19.8,0.9,20,0C316,265.3,316,271.7,317,278z M414.5,279
			c0,0.2-20,0.1-20,0c0-7,0.4-14-0.5-21c0.1,0.7,19.9-1,20,0C414.9,265,414.5,272,414.5,279z"/>
		<path d="M448.4,204.6h-10.6l-2.5-56.7l14.6-23c0.6-0.9,0.9-1.9,0.9-2.9V65.5c0-3-2.5-5.5-5.5-5.5H430c-3,0-5.5,2.5-5.5,5.5v14.3
			h-10.8V65.5c0-3-2.5-5.5-5.5-5.5h-30.4c-3,0-5.5,2.5-5.5,5.5v14.3h-9.7V65.5c0-3-2.5-5.5-5.5-5.5h-30.4c-3,0-5.5,2.5-5.5,5.5v14.3
			h-10.8V65.5c0-3-2.5-5.5-5.5-5.5h-15.2c-3,0-5.5,2.5-5.5,5.5V122c0,1,0.3,2.1,0.9,2.9l14.6,23l-2.5,56.7h-0.2
			c-3,0-5.5,2.5-5.5,5.5v15.3h-12.2v-15.3c0-3-2.5-5.5-5.5-5.5h-35.1c-3,0-5.5,2.5-5.5,5.5v15.3h-12.2v-15.3c0-3-2.5-5.5-5.5-5.5
			h-35.1c-3,0-5.5,2.5-5.5,5.5v15.3h-12.2v-15.3c0-3-2.5-5.5-5.5-5.5h-0.2l-2.5-56.7l14.6-23c0.6-0.9,0.9-1.9,0.9-2.9V65.5
			c0-3-2.5-5.5-5.5-5.5h-15.2c-3,0-5.5,2.5-5.5,5.5v14.3h-10.8V65.5c0-3-2.5-5.5-5.5-5.5H96.9c-3,0-5.5,2.5-5.5,5.5v14.3h-9.7V65.5
			c0-3-2.5-5.5-5.5-5.5H45.7c-3,0-5.5,2.5-5.5,5.5v14.3H29.4V65.5c0-3-2.5-5.5-5.5-5.5H8.7c-3,0-5.5,2.5-5.5,5.5V122
			c0,1,0.3,2.1,0.9,2.9l14.6,23l-2.5,56.7H5.5c-3,0-5.5,2.5-5.5,5.5v178.3c0,3,2.5,5.5,5.5,5.5h181.4h80h181.4c3,0,5.5-2.5,5.5-5.5
			V210.1C453.9,207.1,451.4,204.6,448.4,204.6z M426.6,140.9H308.1l-8.6-13.5h135.7L426.6,140.9z M299.2,71v14.3
			c0,3,2.5,5.5,5.5,5.5h21.8c3,0,5.5-2.5,5.5-5.5V71h19.4v14.3c0,3,2.5,5.5,5.5,5.5h20.7c3,0,5.5-2.5,5.5-5.5V71h19.4v14.3
			c0,3,2.5,5.5,5.5,5.5H430c3,0,5.5-2.5,5.5-5.5V71h4.2v45.5H295V71H299.2z M310.3,151.9h114.1l2.4,52.7h-13.5c-3,0-5.5,2.5-5.5,5.5
			v15.3h-12.2v-15.3c0-3-2.5-5.5-5.5-5.5H355c-3,0-5.5,2.5-5.5,5.5v15.3h-12.2v-15.3c0-3-2.5-5.5-5.5-5.5h-23.9L310.3,151.9z
			 M145.8,140.9H27.2l-8.6-13.5h135.7L145.8,140.9z M18.4,71v14.3c0,3,2.5,5.5,5.5,5.5h21.8c3,0,5.5-2.5,5.5-5.5V71h19.4v14.3
			c0,3,2.5,5.5,5.5,5.5h20.7c3,0,5.5-2.5,5.5-5.5V71h19.4v14.3c0,3,2.5,5.5,5.5,5.5h21.8c3,0,5.5-2.5,5.5-5.5V71h4.2v45.5H14.2V71
			H18.4z M29.5,151.9h114.1l2.4,52.7H122c-3,0-5.5,2.5-5.5,5.5v15.3h-12.2v-15.3c0-3-2.5-5.5-5.5-5.5H63.8c-3,0-5.5,2.5-5.5,5.5
			v15.3H46.1v-15.3c0-3-2.5-5.5-5.5-5.5H27.1L29.5,151.9z M279.4,382.9h-7v-53.4c0-25.1-20.4-45.5-45.5-45.5s-45.5,20.4-45.5,45.5
			v53.4h-7v-53.4c0-28.9,23.6-52.5,52.5-52.5s52.5,23.6,52.5,52.5V382.9z M192.4,382.9v-53.4c0-19,15.5-34.5,34.5-34.5
			s34.5,15.5,34.5,34.5v53.4H192.4z M442.9,382.9H290.4v-53.4c0-35-28.5-63.5-63.5-63.5s-63.5,28.5-63.5,63.5v53.4H11V215.6h24.1
			v15.3c0,3,2.5,5.5,5.5,5.5h23.2c3,0,5.5-2.5,5.5-5.5v-15.3h24.1v15.3c0,3,2.5,5.5,5.5,5.5H122c3,0,5.5-2.5,5.5-5.5v-15.3h24.1
			v15.3c0,3,2.5,5.5,5.5,5.5h23.2c3,0,5.5-2.5,5.5-5.5v-15.3h24.1v15.3c0,3,2.5,5.5,5.5,5.5h23.2c3,0,5.5-2.5,5.5-5.5v-15.3h24.1
			v15.3c0,3,2.5,5.5,5.5,5.5h23.2c3,0,5.5-2.5,5.5-5.5v-15.3h24.1v15.3c0,3,2.5,5.5,5.5,5.5H355c3,0,5.5-2.5,5.5-5.5v-15.3h24.1
			v15.3c0,3,2.5,5.5,5.5,5.5h23.2c3,0,5.5-2.5,5.5-5.5v-15.3h24.1L442.9,382.9L442.9,382.9z"/>
		<path d="M77.5,196h18c3,0,5.5-2.5,5.5-5.5v-18c0-8-6.5-14.5-14.5-14.5S72,164.5,72,172.5v18C72,193.5,74.5,196,77.5,196z
			 M83,172.5c0-1.9,1.6-3.5,3.5-3.5s3.5,1.6,3.5,3.5V185h-7V172.5z"/>
		<path d="M62.9,281.5v-18c0-8-6.5-14.5-14.5-14.5s-14.5,6.5-14.5,14.5v18c0,3,2.5,5.5,5.5,5.5h18C60.5,287,62.9,284.5,62.9,281.5z
			 M51.9,276h-7v-12.5c0-1.9,1.6-3.5,3.5-3.5s3.5,1.6,3.5,3.5V276z"/>
		<path d="M147.4,249c-8,0-14.5,6.5-14.5,14.5v18c0,3,2.5,5.5,5.5,5.5h18c3,0,5.5-2.5,5.5-5.5v-18C161.9,255.5,155.4,249,147.4,249z
			 M150.9,276h-7v-12.5c0-1.9,1.6-3.5,3.5-3.5s3.5,1.6,3.5,3.5V276z"/>
		<path d="M306.4,249c-8,0-14.5,6.5-14.5,14.5v18c0,3,2.5,5.5,5.5,5.5h18c3,0,5.5-2.5,5.5-5.5v-18C320.9,255.5,314.4,249,306.4,249z
			 M309.9,276h-7v-12.5c0-1.9,1.6-3.5,3.5-3.5s3.5,1.6,3.5,3.5V276z"/>
		<path d="M405.4,249c-8,0-14.5,6.5-14.5,14.5v18c0,3,2.5,5.5,5.5,5.5h18c3,0,5.5-2.5,5.5-5.5v-18C419.9,255.5,413.4,249,405.4,249z
			 M408.9,276h-7v-12.5c0-1.9,1.6-3.5,3.5-3.5s3.5,1.6,3.5,3.5V276z"/>
		<path d="M358.3,196h18c3,0,5.5-2.5,5.5-5.5v-18c0-8-6.5-14.5-14.5-14.5s-14.5,6.5-14.5,14.5v18C352.8,193.5,355.3,196,358.3,196z
			 M363.8,172.5c0-1.9,1.6-3.5,3.5-3.5s3.5,1.6,3.5,3.5V185h-7V172.5z"/>
		<path d="M69.9,322.5c0-3-2.5-5.5-5.5-5.5h-13c-3,0-5.5,2.5-5.5,5.5s2.5,5.5,5.5,5.5h13C67.4,328,69.9,325.5,69.9,322.5z"/>
		<path d="M76.4,332h-13c-3,0-5.5,2.5-5.5,5.5s2.5,5.5,5.5,5.5h13c3,0,5.5-2.5,5.5-5.5S79.4,332,76.4,332z"/>
		<path d="M360.4,282c3,0,5.5-2.5,5.5-5.5s-2.5-5.5-5.5-5.5h-13c-3,0-5.5,2.5-5.5,5.5s2.5,5.5,5.5,5.5H360.4z"/>
		<path d="M401.9,334.5c0,3,2.5,5.5,5.5,5.5h13c3,0,5.5-2.5,5.5-5.5s-2.5-5.5-5.5-5.5h-13C404.3,329,401.9,331.5,401.9,334.5z"/>
		<path d="M380.4,349h-13c-3,0-5.5,2.5-5.5,5.5s2.5,5.5,5.5,5.5h13c3,0,5.5-2.5,5.5-5.5S383.4,349,380.4,349z"/>
		<path d="M362.4,362h-13c-3,0-5.5,2.5-5.5,5.5s2.5,5.5,5.5,5.5h13c3,0,5.5-2.5,5.5-5.5S365.4,362,362.4,362z"/>
		<path d="M193.4,251h-13c-3,0-5.5,2.5-5.5,5.5c0,3,2.5,5.5,5.5,5.5h13c3,0,5.5-2.5,5.5-5.5C198.9,253.4,196.4,251,193.4,251z"/>
		<path d="M52.4,174c3,0,5.5-2.5,5.5-5.5s-2.5-5.5-5.5-5.5h-11c-3,0-5.5,2.5-5.5,5.5s2.5,5.5,5.5,5.5H52.4z"/>
		<path d="M117.4,193h11c3,0,5.5-2.5,5.5-5.5s-2.5-5.5-5.5-5.5h-11c-3,0-5.5,2.5-5.5,5.5S114.3,193,117.4,193z"/>
		<path d="M398.4,179h11c3,0,5.5-2.5,5.5-5.5s-2.5-5.5-5.5-5.5h-11c-3,0-5.5,2.5-5.5,5.5S395.3,179,398.4,179z"/>
		<path d="M378.4,110h11c3,0,5.5-2.5,5.5-5.5s-2.5-5.5-5.5-5.5h-11c-3,0-5.5,2.5-5.5,5.5S375.3,110,378.4,110z"/>
		<path d="M104.4,111h11c3,0,5.5-2.5,5.5-5.5s-2.5-5.5-5.5-5.5h-11c-3,0-5.5,2.5-5.5,5.5S101.3,111,104.4,111z"/>
	</g>
</g>
</svg>
