<?xml version="1.0" encoding="utf-8"?>
<!-- Generator: Adobe Illustrator 21.1.0, SVG Export Plug-In . SVG Version: 6.00 Build 0)  -->
<svg version="1.1" xmlns="http://www.w3.org/2000/svg" xmlns:xlink="http://www.w3.org/1999/xlink" x="0px" y="0px"
	 viewBox="0 0 441 441" style="enable-background:new 0 0 441 441;" xml:space="preserve">
<style type="text/css">
	.st0{opacity:0.81;fill:#666666;stroke:#696B6F;stroke-miterlimit:10;}
	.st1{stroke:#696B6F;stroke-miterlimit:10;}
</style>
<g id="Слой_2">
	<path class="st0" d="M264,431l-40.7,4c-11.4,0-57.2-1.6-91.3-18.7c-29.3-14.7-58.9-30.1-51.3-39.3c8.7-10.7,33.7-28.6,34-34
		c0.7-14.1,8.5-13.8,6-22.7c-3.4-12.4-21.3-9.8-21.3-20.7L82,181l7.3-10.7C108.7,105.7,143.3,61,196.7,39l22.7-22
		c2.7,12.7,52.7,32.7,81.3,60.7c18.8,18.3,32,30.7,37.3,57.3l18.7,60.7l-10,67.3l-2.7,38c-32.1,13.4-28,27.3-5.3,58.7
		c10.3,14.3,25.6,16.6,23.3,19.3C345.3,399,316,419.7,264,431z"/>
</g>
<g id="Capa_1">
	<g>
		<path class="st1" d="M322,139.4c1.4,0,2.9-0.6,3.9-1.6c1-1,1.6-2.4,1.6-3.9s-0.6-2.9-1.6-3.9c-1-1-2.4-1.6-3.9-1.6
			s-2.9,0.6-3.9,1.6c-1,1-1.6,2.4-1.6,3.9s0.6,2.9,1.6,3.9C319.1,138.8,320.6,139.4,322,139.4z"/>
		<path class="st1" d="M219.4,120.1c0.4,0.1,0.7,0.1,1,0.1c2.6,0,4.9-1.8,5.4-4.5c0.6-3-1.4-5.9-4.4-6.4c-3-0.6-5.9,1.4-6.4,4.4
			C214.5,116.7,216.5,119.5,219.4,120.1z"/>
		<path class="st1" d="M179.9,127.9c0.3,0,0.7,0,1-0.1c3-0.6,4.9-3.4,4.4-6.4c-0.6-3-3.4-4.9-6.4-4.4c-3,0.6-4.9,3.4-4.4,6.4
			C175,126,177.3,127.9,179.9,127.9z"/>
		<path class="st1" d="M200.2,124c0.3,0,0.7,0,1-0.1c3-0.6,4.9-3.4,4.4-6.4c-0.6-3-3.4-4.9-6.4-4.4c-3,0.6-4.9,3.4-4.4,6.4
			C195.3,122.2,197.6,124,200.2,124z"/>
		<path class="st1" d="M280.4,131.6c0.4,0.1,0.7,0.1,1,0.1c2.6,0,4.9-1.8,5.4-4.5c0.6-3-1.4-5.9-4.4-6.4c-3-0.6-5.9,1.4-6.4,4.4
			C275.4,128.2,277.4,131.1,280.4,131.6z"/>
		<path class="st1" d="M260.1,127.8c0.3,0.1,0.7,0.1,1,0.1c2.6,0,4.9-1.8,5.4-4.5c0.6-3-1.4-5.9-4.4-6.4c-3-0.6-5.9,1.4-6.4,4.4
			C255.1,124.3,257.1,127.2,260.1,127.8z"/>
		<path class="st1" d="M300.7,135.5c0.4,0.1,0.7,0.1,1,0.1c2.6,0,4.9-1.8,5.4-4.5c0.6-3-1.4-5.9-4.4-6.4c-3-0.6-5.9,1.4-6.4,4.4
			C295.7,132,297.7,134.9,300.7,135.5z"/>
		<path class="st1" d="M239.8,123.9c0.4,0.1,0.7,0.1,1,0.1c2.6,0,4.9-1.8,5.4-4.5c0.6-3-1.4-5.9-4.4-6.4c-3-0.6-5.9,1.4-6.4,4.4
			C234.8,120.5,236.8,123.4,239.8,123.9z"/>
		<path class="st1" d="M139.2,135.6c0.3,0,0.7,0,1-0.1c3-0.6,4.9-3.4,4.4-6.4c-0.6-3-3.4-4.9-6.4-4.4c-3,0.6-4.9,3.4-4.4,6.4
			C134.3,133.7,136.6,135.6,139.2,135.6z"/>
		<path class="st1" d="M159.5,131.7c0.3,0,0.7,0,1-0.1c3-0.6,4.9-3.4,4.4-6.4c-0.6-3-3.4-4.9-6.4-4.4c-3,0.6-4.9,3.4-4.4,6.4
			C154.6,129.9,157,131.7,159.5,131.7z"/>
		<path class="st1" d="M118.9,139.4c1.4,0,2.9-0.6,3.9-1.6c1-1,1.6-2.4,1.6-3.9s-0.6-2.9-1.6-3.9s-2.4-1.6-3.9-1.6s-2.9,0.6-3.9,1.6
			c-1,1-1.6,2.4-1.6,3.9s0.6,2.9,1.6,3.9C116.1,138.8,117.5,139.4,118.9,139.4z"/>
		<path class="st1" d="M211.5,197c-1.3-1-2.9-1.5-4.5-1.2l-25,4.7c-2.6,0.5-4.5,2.8-4.5,5.4v126.3c0,1.8,0.9,3.6,2.5,4.6l25,16.6
			c0.9,0.6,2,0.9,3,0.9c0.9,0,1.8-0.2,2.6-0.7c1.8-1,2.9-2.8,2.9-4.8V201.2C213.5,199.6,212.7,198,211.5,197z M202.5,338.6l-14-9.3
			V210.5l14-2.6V338.6z"/>
		<path class="st1" d="M161.5,206.4c-1.3-1-2.9-1.5-4.5-1.2l-25,4.7c-2.6,0.5-4.5,2.8-4.5,5.4v83.7c0,1.8,0.9,3.6,2.5,4.6l25,16.6
			c0.9,0.6,2,0.9,3,0.9c0.9,0,1.8-0.2,2.6-0.7c1.8-1,2.9-2.8,2.9-4.8v-105C163.5,209,162.7,207.5,161.5,206.4z M152.5,305.4l-14-9.3
			V220l14-2.6V305.4z"/>
		<path class="st1" d="M230.4,353.7c0.8,0.4,1.7,0.7,2.6,0.7c1.1,0,2.1-0.3,3-0.9l25-16.6c1.5-1,2.5-2.7,2.5-4.6V205.9
			c0-2.6-1.9-4.9-4.5-5.4l-25-4.7c-1.6-0.3-3.3,0.1-4.5,1.2c-1.3,1-2,2.6-2,4.2v147.7C227.5,350.9,228.6,352.8,230.4,353.7z
			 M238.5,207.9l14,2.6v118.8l-14,9.3V207.9z"/>
		<path class="st1" d="M280.4,320.5c0.8,0.4,1.7,0.7,2.6,0.7c1.1,0,2.1-0.3,3-0.9l25-16.6c1.5-1,2.5-2.7,2.5-4.6v-83.7
			c0-2.6-1.9-4.9-4.5-5.4l-25-4.7c-1.6-0.3-3.3,0.1-4.5,1.2c-1.3,1-2,2.6-2,4.2v105C277.5,317.7,278.6,319.6,280.4,320.5z
			 M288.5,217.3l14,2.6v76.2l-14,9.3V217.3z"/>
		<path class="st1" d="M325.7,288c0.1,0,0.2,0,0.3,0c2.9,0,5.3-2.3,5.5-5.2l3.4-57c0.2-3-2.1-5.6-5.2-5.8c-3-0.2-5.6,2.1-5.8,5.2
			l-3.4,57C320.4,285.2,322.7,287.8,325.7,288z"/>
		<path class="st1" d="M117,225.2c-0.2-3-2.8-5.3-5.8-5.2c-3,0.2-5.3,2.8-5.2,5.8l3.4,57c0.2,2.9,2.6,5.2,5.5,5.2c0.1,0,0.2,0,0.3,0
			c3-0.2,5.3-2.8,5.2-5.8L117,225.2z"/>
		<path class="st1" d="M371.7,377.5c-0.4-1.9-1.6-3.4-3.4-4.1l-2.8-1.1c-22.8-8.8-37.8-29.9-38.8-54.2l6.3-4.2
			c9.2-6.1,15.4-15.9,16.9-26.8l16-115.7c0.3-2.5-1.1-4.9-3.4-5.9c-2.4-0.9-5.1-0.1-6.5,2l-1,1.4c-4.6-24.2-14.9-48.9-29.9-70.8
			c-18.7-27.4-43.2-47.9-68.9-57.6c-10.4-3.9-19-12.1-23.8-22.5l-6.8-14.9c-0.9-2-2.8-3.2-5-3.2s-4.1,1.3-5,3.2l-6.8,14.9
			c-4.7,10.4-13.4,18.6-23.8,22.5c-25.7,9.7-50.2,30.1-68.9,57.6c-15,21.9-25.3,46.6-29.9,70.8l-1-1.5c-1.5-2.1-4.2-2.9-6.5-2
			c-2.4,0.9-3.8,3.4-3.4,5.9l16,115.7c1.5,10.9,7.7,20.7,16.9,26.8l6.3,4.2c-1,24.2-16,45.3-38.8,54.1l-2.8,1.1
			c-1.8,0.7-3.1,2.2-3.4,4.1s0.3,3.8,1.7,5.1c40,36.7,86.6,50.7,149.6,58.3c55.2,6.7,108.7-20.7,149.6-58.3
			C371.4,381.3,372.1,379.4,371.7,377.5z M252.2,50.9c23.6,8.9,46.2,27.9,63.7,53.5c0.1,0.2,0.2,0.3,0.3,0.5
			c-18.7,2.1-37.7-4.7-50.8-18.5l-0.5-0.5c-1.8-1.9-4.6-2.3-6.8-0.9c-5.7,3.4-12.4,3.9-18.5,1.4c-6.1-2.5-10.6-7.6-12.3-13.9
			l-1.3-4.8v-38C232.2,39.3,241.5,46.9,252.2,50.9z M188.3,50.9c10.7-4,20-11.7,26.2-21.4v38l-2.2,8.5c-0.2,0.7-0.5,1.3-0.9,1.9
			c-8.2,11.3-22,12.8-31.4,5.2c-0.6-0.5-1.5-0.4-2,0.2l-2.8,3c-13.2,13.9-32.1,20.7-50.8,18.5c0,0,0,0,0,0
			C141.8,79,164.5,59.9,188.3,50.9z M118.3,115c22.7,4.3,46.1-2.7,62.8-18.7c7.8,3.3,16.4,3.4,24.4,0.2c6.3-2.6,11.4-6.9,14.9-12.4
			c3.5,5.5,8.6,9.9,14.9,12.4c8,3.2,16.7,3.1,24.4-0.2c13.5,12.9,31.3,19.9,49.7,19.9c4.4,0,8.8-0.4,13.2-1.2
			c12.6,21.3,20.6,44.7,23.1,67.1l-8.8,12.6l-27-5.1v-16c0-2.6-1.9-4.9-4.5-5.4l-83.9-15.9c-0.7-0.1-1.4-0.1-2,0l-83.9,15.9
			c-2.6,0.5-4.5,2.8-4.5,5.4v16l-27,5.1l-8.8-12.6C97.7,159.7,105.8,136.3,118.3,115z M298.9,187.4l-77.4-14.6c-0.7-0.1-1.4-0.1-2,0
			l-77.4,14.6v-9.3l78.4-14.8l78.4,14.8L298.9,187.4L298.9,187.4z M102,285.7l-12.8-93.2l7.9,11.3c1.2,1.8,3.4,2.7,5.5,2.3
			l117.9-22.3l117.9,22.3c2.1,0.4,4.3-0.5,5.5-2.3l7.9-11.3L339,285.7c-1.1,7.8-5.5,14.8-12,19.2l-106.5,70.7L114,304.9
			C107.4,300.5,103,293.5,102,285.7z M220.5,430c-49.9,0-97.7-17.6-135.6-49.7c21.9-10.6,36.7-31.2,39.8-55.1l92.8,61.6
			c0.9,0.6,2,0.9,3,0.9s2.1-0.3,3-0.9l92.8-61.6c3.1,23.9,17.9,44.5,39.8,55.1C318.2,412.4,270.4,430,220.5,430z"/>
	</g>
</g>
</svg>
