<?xml version="1.0" encoding="utf-8"?>
<!-- Generator: Adobe Illustrator 21.1.0, SVG Export Plug-In . SVG Version: 6.00 Build 0)  -->
<svg version="1.1" id="Слой_1" xmlns="http://www.w3.org/2000/svg" xmlns:xlink="http://www.w3.org/1999/xlink" x="0px" y="0px"
	 viewBox="0 0 512 512" style="enable-background:new 0 0 512 512;" xml:space="preserve">
<path d="M384.9,278.5l-0.8,4.2l1.7,7.9c0.1,0.3,0.3,0.5,0.6,0.5h1c0.4,0,0.7-0.3,0.6-0.7l-1.8-13.8
	C385.8,277.2,385.4,277.9,384.9,278.5z"/>
<path d="M360.1,277.6v-0.4c-0.3-0.2-0.5-0.5-0.7-0.6l-1.2,2.6c-0.4,0.8-0.6,1.8-0.5,2.7l1.1,8.8c0.1,0.3,0.3,0.6,0.6,0.6h0.8
	c0.3,0,0.6-0.3,0.6-0.6l0.3-6.3l-0.1-0.6C360.4,281.6,360.1,279.6,360.1,277.6z"/>
<path d="M389.9,256.2c0.1-1.5-0.5-3.7-0.8-4.8c-0.1-0.3-0.4-0.3-0.5-0.1l-3,6.2l5.6-0.8L389.9,256.2z"/>
<path d="M384.1,261.8c-0.5,0.6-1.3,1-2.2,1h-0.6l-1,1c0.8,1.9-0.6,3.3-0.6,3.5l-6,8.8c-1.1,1.5-3.2,2-4.8,1c-1.6-1.1-2-3.3-0.9-4.9
	l3.3-5l-3.9-1.2c0,0-5.2-1.5-7.8,1.4c-0.6-1.1-1.9-1.4-3.1-0.7c0,0-2.2,1.4-3.5,5.2c-1,2.7-1,4.1-1.2,4.6c-0.4,0.6-0.8,0.5-1.4,0.3
	c-0.2-0.1-0.4,0.1-0.3,0.3c0.4,1.4,1.5,2,2.6,1.7c2.4-0.6,3.9-4.1,4.6-6.4c0.2-0.7,0.3-1.2,0.9-3.4c0.1-0.2,0.3-0.5,0.7-0.5
	c-0.6,1.4-0.6,3.2,0.1,5c0.5,1.2,1.4,2.2,2.3,2.8v0.9c0.1,2.1,0.3,4.1,0.8,6.1l1.9,7.2c0.1,0.3,0.3,0.5,0.6,0.5h0.8
	c0.4,0,0.6-0.3,0.6-0.7l-0.8-7.7c-0.1-1,0.1-2.1,0.5-3c0.3-0.6,0.8-0.9,1.5-0.9c0.3,0,8.3,0,7.9,0c1,0,1.9,0.5,2.3,1.4
	c0.8,1.6,1.2,3.3,1.2,5.1l-0.1,5.1c0,0.4,0.3,0.6,0.6,0.6h1.1c0.3,0,0.6-0.2,0.6-0.5l2.4-12.7c3-3.7,5-8.6,6.1-13.8
	c0.6,0.1,1,0.1,1.4-0.1c0.8-0.1,1.5-0.5,2.1-0.9c0.6-0.5,1.5-0.5,2.2-0.1c0.5,0.3,1.2,0.1,1.4-0.5l0.6-1.6c0.1-0.3,0.1-0.7-0.2-0.9
	L384.1,261.8z"/>
<path d="M379.3,249.2c0,1.7-1.4,3.2-3.2,3.2c-1.7,0-3.2-1.4-3.2-3.2c0-1.7,1.4-3.2,3.2-3.2C377.9,246,379.3,247.4,379.3,249.2z"/>
<path d="M381.7,258.2l-4.8,0.2l-3-3.4l2.8,1.8c0-0.1,0.7-1.2-0.1-2.3c-0.3-0.3-0.6-0.6-1-0.7l-3.5-1.4c-1-0.4-2.3,0-2.8,1.2l-3.2,8
	c-0.8,2.1,0.5,4.5,2.8,4.8l4.6,0.6l-4.2,6.2c-0.6,0.9-0.4,2.1,0.5,2.7c0.9,0.6,2.1,0.4,2.7-0.5l6-8.8c0.5-0.6,0.5-1.5,0-2.2
	c-0.3-0.5-0.8-0.7-1.4-0.8l-2.6-0.4l-4.8,0.6c-1.1,0.1-2.1-0.6-2.3-1.7c-0.1-1.1,0.6-2.1,1.7-2.3l3.5-0.5l-1-2.2l3.5,4.1
	c0.3,0.4,0.8,0.6,1.3,0.6l5.5-0.3c0.9-0.1,1.6-0.8,1.6-1.6C383.4,258.9,382.7,258.1,381.7,258.2z"/>
<path d="M402.3,257.4c-0.1-0.4-0.5-0.7-0.8-0.6l-16.7,2.3c0.1,0.2,0.1,0.5,0.1,0.7s0,0.6-0.1,0.8l16.9-2.3
	C402,258.2,402.4,257.8,402.3,257.4z"/>
<path d="M368.6,261.9c0.1,0.4,0.5,0.7,0.8,0.6l4.4-0.6l-0.7-1.4l-3.9,0.5C368.9,261.1,368.6,261.5,368.6,261.9z"/>
</svg>
