<?xml version="1.0" encoding="utf-8"?>
<!-- Generator: Adobe Illustrator 21.1.0, SVG Export Plug-In . SVG Version: 6.00 Build 0)  -->
<svg version="1.1" id="Слой_1" xmlns="http://www.w3.org/2000/svg" xmlns:xlink="http://www.w3.org/1999/xlink" x="0px" y="0px"
	 viewBox="0 0 512 512" style="enable-background:new 0 0 512 512;" xml:space="preserve">
<path d="M375.3,271.4L374,278l2.6,12.2c0.1,0.5,0.5,0.8,1,0.8h1.6c0.6,0,1.1-0.5,1-1.1l-2.8-21.4C376.7,269.5,376,270.5,375.3,271.4
	z"/>
<path d="M336.7,270l0-0.6c-0.4-0.3-0.7-0.7-1.1-1l-1.9,4c-0.6,1.3-0.9,2.8-0.7,4.2l1.7,13.7c0.1,0.5,0.5,0.9,1,0.9h1.2
	c0.5,0,1-0.4,1-0.9l0.5-9.8l-0.2-0.9C337.2,276.3,336.7,273.2,336.7,270z"/>
<path d="M383,236.8c0.1-2.3-0.8-5.7-1.3-7.4c-0.1-0.4-0.6-0.4-0.8-0.1l-4.7,9.6l8.7-1.2L383,236.8z"/>
<path d="M374,245.6c-0.8,0.9-2,1.5-3.4,1.6l-1,0l-1.5,1.6c1.3,3-0.9,5.1-1,5.5l-9.3,13.7c-1.7,2.4-4.9,3.1-7.4,1.5
	c-2.5-1.7-3.1-5.1-1.4-7.6l5.2-7.7l-6-1.9c0,0-8.1-2.3-12.1,2.1c-1-1.7-2.9-2.2-4.8-1.1c0,0-3.4,2.1-5.5,8.1
	c-1.5,4.2-1.5,6.3-1.9,7.2c-0.6,1-1.3,0.7-2.1,0.4c-0.3-0.1-0.6,0.1-0.5,0.5c0.6,2.2,2.3,3.1,4.1,2.7c3.7-1,6-6.3,7.1-9.9
	c0.3-1.1,0.5-1.8,1.4-5.3c0.1-0.3,0.4-0.8,1.1-0.7c-0.9,2.2-0.9,5,0.2,7.7c0.8,1.9,2.1,3.4,3.5,4.4l0,1.4c0.1,3.2,0.5,6.3,1.3,9.4
	l3,11.2c0.1,0.4,0.5,0.7,1,0.7h1.3c0.6,0,1-0.5,1-1.1l-1.2-12c-0.2-1.6,0.1-3.2,0.8-4.6c0.4-0.9,1.3-1.4,2.3-1.4
	c0.4,0,12.9,0,12.2,0c1.5,0,2.9,0.8,3.5,2.2c1.3,2.5,1.9,5.2,1.9,8l-0.1,8c0,0.6,0.4,1,1,1h1.7c0.5,0,0.9-0.3,1-0.8l3.8-19.7
	c4.7-5.8,7.8-13.3,9.4-21.5c0.9,0.1,1.6,0.1,2.2-0.1c1.3-0.2,2.4-0.8,3.2-1.4c1-0.7,2.4-0.8,3.4-0.1c0.8,0.5,1.8,0.2,2.2-0.7
	l0.9-2.5c0.2-0.5,0.1-1.1-0.3-1.4L374,245.6z"/>
<path d="M366.6,225.9c0,2.7-2.2,4.9-4.9,4.9c-2.7,0-4.9-2.2-4.9-4.9c0-2.7,2.2-4.9,4.9-4.9C364.4,221,366.6,223.2,366.6,225.9z"/>
<path d="M370.3,239.9l-7.4,0.3l-4.6-5.3l4.3,2.8c0-0.1,1.1-1.9-0.2-3.6c-0.4-0.5-0.9-0.9-1.5-1.1l-5.5-2.2c-1.6-0.6-3.6,0-4.3,1.9
	l-5,12.4c-1.3,3.3,0.8,7,4.3,7.5l7.2,1l-6.6,9.7c-0.9,1.4-0.6,3.3,0.8,4.2c1.4,0.9,3.3,0.6,4.2-0.8l9.3-13.7c0.7-1,0.7-2.4,0-3.4
	c-0.5-0.7-1.3-1.1-2.1-1.3l-4.1-0.6l-7.4,1c-1.7,0.2-3.3-1-3.6-2.7c-0.2-1.7,1-3.3,2.7-3.6l5.4-0.7l-1.6-3.4l5.4,6.3
	c0.5,0.6,1.3,0.9,2,0.9l8.6-0.4c1.4-0.1,2.5-1.2,2.5-2.5C373,241,371.8,239.8,370.3,239.9z"/>
<path d="M402.3,238.7c-0.1-0.6-0.7-1.1-1.3-1l-25.9,3.5c0.1,0.3,0.2,0.7,0.2,1.1c0,0.4,0,0.9-0.1,1.3l26.2-3.5
	C401.9,239.9,402.4,239.3,402.3,238.7z"/>
<path d="M350,245.7c0.1,0.6,0.7,1.1,1.3,1l6.8-0.9l-1.1-2.2l-6,0.8C350.4,244.4,349.9,245,350,245.7z"/>
</svg>
