<?xml version="1.0" encoding="utf-8"?>
<!-- Generator: Adobe Illustrator 21.1.0, SVG Export Plug-In . SVG Version: 6.00 Build 0)  -->
<svg version="1.1" id="Capa_1" xmlns="http://www.w3.org/2000/svg" xmlns:xlink="http://www.w3.org/1999/xlink" x="0px" y="0px"
	 viewBox="0 0 485.2 485.2" style="enable-background:new 0 0 485.2 485.2;" xml:space="preserve">
<style type="text/css">
	.st0{opacity:0.14;fill:#A1C4D6;}
	.st1{opacity:0.91;fill:#EDC498;}
	.st2{fill:#1E0202;}
</style>
<g>
	<path d="M394.2,30.3h30.3V0H60.7v30.3H91v30.3h14.5c-22,59.9-3.1,127.6,47.9,166.8c7.9,6.1,16.4,10.9,25.1,15.2
		c-8.7,4.3-17.2,9.1-25.1,15.2c-51,39.1-69.9,106.9-47.9,166.8H91v30.3H60.7v30.3h363.9v-30.3h-30.3v-30.3h-14.5
		c22-59.8,3.1-127.6-47.9-166.8c-7.9-6.1-16.4-10.9-25.1-15.2c8.7-4.3,17.2-9.1,25.1-15.2c50.9-39.1,69.9-106.9,47.9-166.8h14.5
		L394.2,30.3L394.2,30.3z M349.9,66.5c20.2,48.5,5.2,104.8-36.5,136.9c-12.3,9.4-26.1,15.8-40.5,19.7v39.2
		c14.4,3.9,28.2,10.2,40.5,19.7c41.7,32,56.7,88.3,36.5,136.9l-2.4,5.8h-30.9c5.1-25.4-2.7-52.7-23-71.3
		c-10.5-9.5-22.9-15.4-35.9-18.1V211c17.9-2.7,35.4-9.9,50.2-22.1c12.6-10.3,21.9-23.2,28.3-37.3H149c6.4,14,15.6,26.9,28.2,37.3
		c14.9,12.2,32.3,19.5,50.2,22.1c0.4,3,0,80.8,0,124.2c-13,2.6-25.4,8.6-35.8,18.1c-20.4,18.5-28.2,45.8-23,71.3h-30.9l-2.4-5.8
		c-20.2-48.5-5.2-104.8,36.5-136.9c12.3-9.5,26.2-15.8,40.5-19.7V223c-14.3-3.9-28.2-10.2-40.5-19.7c-41.7-32-56.7-88.3-36.5-136.9
		l2.4-5.8h209.8L349.9,66.5z"/>
</g>
<g id="Слой_2">
	<path class="st0" d="M379.8,424.6c-26.3,1.5-195.5,0.2-274.4,0c0,0-21.9-46.5,1.6-104.5s60.5-70.5,71.4-77.4
		C117,206.5,112.5,177,112.5,177S97,144.5,97,126c-3-37.5,9.5-65,9.5-65l273.3-0.4c0,0,11.2,38.4,9.2,40.9s6,29.5-18,79.5
		c-12,18.5-24.5,40.5-64.2,61.6C302,245.5,332,243,366,296C384.5,329.5,398.5,359.5,379.8,424.6z"/>
</g>
<g id="Слой_3">
	<path class="st1" d="M299,197c-10.5,8-40.2,14-40.2,14s-23.9-1-30.3,0s-31.4-9-27.4-6.5s-19.3-10.1-23.8-15.6
		c-5-4-8.9-6.5-14.2-13.4c-7.9-10.3-16.5-25-16.5-25L337,151c0,0-2.5,9.5-11.5,21.5S309.5,189,299,197z"/>
	<rect x="227.4" y="210" class="st1" width="30.6" height="125.2"/>
	<path class="st1" d="M317,395c2.5,11.8-0.4,29.5-0.4,29.5l-148,0c0,0-4.6-15,0.4-33c9.4-33.8,35.7-57.5,74.8-57.5
		S310,361.5,317,395z"/>
</g>
<rect x="60.7" y="0" class="st2" width="363.9" height="30.3"/>
<rect x="61" y="454.9" class="st2" width="363.6" height="32.1"/>
</svg>
