<svg height="511pt" viewBox="0 0 511 511.99976" width="511pt" xmlns="http://www.w3.org/2000/svg"><path d="m274.191406 259.363281 80.640625-80.640625c3.089844-3.09375 3.398438-7.996094.722657-11.453125-31.492188-40.621093-37.171876-94.777343-17.054688-140.285156 2.25-5.085937-.890625-10.933594-6.351562-11.96875l-23.488282-4.460937c-56.445312-10.714844-114.367187 7.113281-154.945312 47.691406-40.578125 40.574218-58.40625 98.5-47.691406 154.945312l4.460937 23.488282c1.035156 5.460937 6.882813 8.597656 11.96875 6.351562 45.511719-20.121094 99.664063-14.4375 140.285156 17.050781 3.457031 2.679688 8.359375 2.371094 11.453125-.71875zm-71.34375-151.984375c13.878906-13.878906 31.148438-23.3125 49.710938-27.65625 3.898437-.914062 7.621094 2.140625 7.542968 6.140625-.484374 24.152344 4.039063 48.277344 13.332032 70.613281.957031 2.304688.414062 4.964844-1.351563 6.730469l-13.40625 13.40625c-1.765625 1.765625-4.425781 2.308594-6.730469 1.351563-22.335937-9.292969-46.464843-13.816406-70.613281-13.335938-4 .082032-7.054687-3.640625-6.140625-7.539062 4.34375-18.5625 13.777344-35.832032 27.65625-49.710938zm0 0" fill="#629acc"/><path d="m252.414062 249.757812c31.488282 40.621094 37.167969 94.777344 17.050782 140.285157-2.246094 5.085937.890625 10.933593 6.351562 11.972656l23.488282 4.457031c56.445312 10.714844 114.367187-7.113281 154.945312-47.691406s58.40625-98.5 47.691406-154.945312l-4.460937-23.488282c-1.035157-5.460937-6.882813-8.601562-11.96875-6.351562-45.507813 20.117187-99.664063 14.4375-140.285157-17.050782-3.457031-2.679687-8.363281-2.371093-11.453124.71875l-80.640626 80.640626c-3.089843 3.09375-3.398437 8-.71875 11.453124zm102.992188 87.546876c-3.898438.914062-7.621094-2.140626-7.542969-6.140626.484375-24.148437-4.039062-48.277343-13.332031-70.613281-.960938-2.304687-.414062-4.964843 1.351562-6.730469l13.40625-13.40625c1.765626-1.765624 4.421876-2.308593 6.730469-1.351562 22.335938 9.292969 46.460938 13.816406 70.609375 13.332031 4.003906-.078125 7.058594 3.644531 6.144532 7.542969-4.34375 18.5625-13.78125 35.832031-27.65625 49.710938-13.875 13.878906-31.148438 23.3125-49.710938 27.65625zm0 0" fill="#629acc"/><path d="m501.941406 203.835938-4.457031-23.488282c-1.039063-5.460937-6.886719-8.601562-11.96875-6.351562-12.566406 5.554687-25.796875 9.132812-39.214844 10.753906-.960937 23.726562-6.761719 46.933594-17.007812 68.195312 2.570312 1.164063 4.175781 4.027344 3.480469 6.992188-4.34375 18.5625-13.777344 35.832031-27.65625 49.710938-13.878907 13.878906-31.148438 23.3125-49.710938 27.65625-2.964844.695312-5.828125-.910157-6.992188-3.480469-21.261718 10.246093-44.46875 16.046875-68.195312 17.007812-1.621094 13.417969-5.199219 26.644531-10.753906 39.210938-2.25 5.085937.890625 10.933593 6.351562 11.972656l23.488282 4.457031c56.445312 10.714844 114.367187-7.113281 154.945312-47.691406s58.40625-98.5 47.691406-154.945312zm0 0" fill="#48709b"/><path d="m126.585938 233.753906c-10.714844-56.445312 7.113281-114.367187 47.691406-154.945312s98.5-58.40625 154.945312-47.691406l7.019532 1.332031c.714843-1.832031 1.460937-3.660157 2.257812-5.464844 2.246094-5.085937-.890625-10.933594-6.351562-11.96875l-23.488282-4.457031c-56.445312-10.714844-114.367187 7.113281-154.945312 47.6875-40.578125 40.578125-58.40625 98.5-47.691406 154.945312l4.457031 23.488282c1.039062 5.460937 6.886719 8.601562 11.972656 6.351562 1.804687-.796875 3.632813-1.542969 5.464844-2.257812zm0 0" fill="#c7cfe2"/><path d="m501.941406 203.835938-4.457031-23.488282c-1.039063-5.460937-6.886719-8.601562-11.96875-6.351562-1.808594.796875-3.636719 1.542968-5.46875 2.257812l1.332031 7.019532c10.714844 56.445312-7.113281 114.367187-47.691406 154.945312-40.574219 40.578125-98.5 58.40625-154.941406 47.691406l-7.019532-1.332031c-.71875 1.832031-1.460937 3.660156-2.261718 5.464844-2.246094 5.085937.890625 10.933593 6.355468 11.972656l23.488282 4.457031c56.445312 10.714844 114.367187-7.113281 154.945312-47.691406 40.574219-40.578125 58.402344-98.5 47.6875-154.945312zm0 0" fill="#c7cfe2"/><path d="m501.941406 203.835938-4.457031-23.488282c-1.039063-5.460937-6.886719-8.601562-11.96875-6.351562-1.808594.796875-3.636719 1.542968-5.46875 2.257812l1.332031 7.019532c10.714844 56.445312-7.113281 114.367187-47.691406 154.945312-40.574219 40.578125-98.5 58.40625-154.941406 47.691406l-7.019532-1.332031c-.71875 1.832031-1.460937 3.660156-2.261718 5.464844-2.246094 5.085937.890625 10.933593 6.355468 11.972656l23.488282 4.457031c56.445312 10.714844 114.367187-7.113281 154.945312-47.691406 40.574219-40.578125 58.402344-98.5 47.6875-154.945312zm0 0" fill="#afb9d2"/><path d="m23.878906 500.410156-11.789062-11.789062c-5.46875-5.46875-5.46875-14.332032 0-19.800782l360.078125-360.078124c5.46875-5.46875 14.332031-5.46875 19.800781 0l11.789062 11.789062c5.464844 5.46875 5.464844 14.332031 0 19.800781l-360.078124 360.078125c-5.46875 5.464844-14.332032 5.464844-19.800782 0zm0 0" fill="#ffa511"/><path d="m403.730469 120.503906-11.734375-11.734375c-.4375-.433593-.898438-.824219-1.375-1.1875 4.246094 5.503907 3.859375 13.433594-1.1875 18.480469l-360.023438 360.023438c-5.046875 5.046874-12.976562 5.433593-18.480468 1.1875.363281.476562.753906.9375 1.1875 1.375l11.734374 11.734374c5.484376 5.480469 14.371094 5.480469 19.855469 0l360.023438-360.027343c5.480469-5.480469 5.480469-14.367188 0-19.851563zm0 0" fill="#f77900"/><path d="m267.597656 86.015625c.085938-4.253906-1.765625-8.230469-5.078125-10.910156-3.300781-2.671875-7.550781-3.648438-11.671875-2.6875-20.199218 4.730469-38.628906 14.984375-53.304687 29.65625-14.671875 14.675781-24.925781 33.109375-29.65625 53.304687-.960938 4.117188.015625 8.371094 2.6875 11.671875 2.679687 3.3125 6.671875 5.183594 10.90625 5.078125 23.046875-.464844 46.417969 3.953125 67.582031 12.761719 1.703125.707031 3.480469 1.050781 5.246094 1.050781 3.550781 0 7.035156-1.394531 9.667968-4.027344l13.40625-13.40625c3.941407-3.9375 5.105469-9.792968 2.972657-14.910156-8.804688-21.167968-13.21875-44.539062-12.757813-67.582031zm-13.609375 84.679687c-21.757812-8.921874-45.597656-13.597656-69.242187-13.597656-.613282 0-1.226563.003906-1.839844.011719 4.253906-16.8125 12.960938-32.144531 25.242188-44.425781 12.285156-12.285156 27.613281-20.992188 44.429687-25.246094-.25 24.242188 4.433594 48.761719 13.585937 71.082031zm0 0"/><path d="m509.308594 202.4375-4.457032-23.488281c-.929687-4.886719-3.988281-9.015625-8.394531-11.332031-4.375-2.296876-9.46875-2.472657-13.976562-.480469-1.699219.753906-3.414063 1.453125-5.140625 2.128906-.078125.03125-.15625.0625-.234375.09375-29.785157 11.613281-62.753907 11.890625-92.640625.867187l24.59375-24.59375c4.0625-4.0625 6.296875-9.460937 6.296875-15.203124 0-5.742188-2.234375-11.140626-6.296875-15.199219l-11.789063-11.792969c-4.058593-4.0625-9.460937-6.296875-15.203125-6.296875-5.742187 0-11.140625 2.234375-15.199218 6.296875l-24.59375 24.59375c-11.019532-29.882812-10.746094-62.867188.863281-92.640625.03125-.078125.0625-.160156.09375-.238281.675781-1.722656 1.378906-3.4375 2.128906-5.140625 1.992187-4.503907 1.816406-9.597657-.480469-13.972657-2.3125-4.40625-6.445312-7.464843-11.332031-8.394531l-23.488281-4.457031c-58.886719-11.175781-119.3125 7.421875-161.644532 49.753906-42.335937 42.335938-60.933593 102.761719-49.757812 161.648438l4.460938 23.488281c.925781 4.886719 3.984374 9.019531 8.394531 11.332031 4.375 2.296875 9.464843 2.472656 13.972656.480469 1.695313-.75 3.410156-1.453125 5.128906-2.125.085938-.035156.167969-.066406.253907-.101563 29.800781-11.617187 62.753906-11.886718 92.632812-.859374l-138.925781 138.925781c-2.929688 2.925781-2.929688 7.675781 0 10.605469 2.929687 2.929687 7.679687 2.929687 10.605469 0l145.921874-145.917969c.75-.519531 1.421876-1.167969 1.953126-1.957031l134.417968-134.417969c2.535156-2.53125 6.65625-2.53125 9.191406 0l11.792969 11.792969c2.53125 2.535156 2.53125 6.65625 0 9.191406l-360.082031 360.078125c-2.53125 2.535156-6.65625 2.535156-9.191406 0l-11.792969-11.789063c-2.53125-2.535156-2.53125-6.660156 0-9.191406l53.359375-53.359375c2.929688-2.929687 2.929688-7.679687 0-10.605469-2.925781-2.929687-7.675781-2.929687-10.605469 0l-53.359375 53.359375c-8.378906 8.382813-8.378906 22.019531 0 30.402344l11.792969 11.789063c4.191406 4.195312 9.695313 6.289062 15.199219 6.289062s11.011718-2.097656 15.203125-6.289062l323.941406-323.9375c32.246094 13.648437 68.238281 15.175781 101.367187 4.503906 9.617188 53.496094-7.46875 108.203125-45.902343 146.636718-38.4375 38.4375-93.144531 55.523438-146.644531 45.90625 7.128906-22.125 8.863281-45.640624 4.972656-68.835937-.6875-4.085937-4.550782-6.847656-8.636719-6.15625-4.085937.6875-6.839844 4.554687-6.15625 8.636719 3.933594 23.445312 1.464844 47.25-7.113281 69.214844-.027344.066406-.050782.132812-.074219.199218-.675781 1.722656-1.378906 3.433594-2.128906 5.132813-1.992188 4.507812-1.816407 9.597656.480469 13.972656 2.3125 4.410156 6.445312 7.46875 11.332031 8.394531l23.488281 4.460938c11.273438 2.136718 22.597656 3.1875 33.84375 3.1875 47.511719 0 93.574219-18.714844 127.804688-52.945313 42.332031-42.332031 60.933593-102.757812 49.753906-161.644531zm-375.632813 28.308594c-9.617187-53.492188 7.46875-108.199219 45.90625-146.636719 6.863281-6.859375 14.363281-13.152344 22.300781-18.695313 3.394532-2.375 4.226563-7.050781 1.851563-10.445312-2.371094-3.394531-7.046875-4.226562-10.441406-1.851562-8.65625 6.046874-16.835938 12.90625-24.320313 20.386718-42.332031 42.335938-60.929687 102.761719-49.753906 161.648438l.195312 1.023437c-.3125.132813-.621093.117188-.933593-.042969-.238281-.125-.539063-.375-.628907-.851562l-4.460937-23.488281c-10.25-54.003907 6.804687-109.421875 45.625-148.242188 38.820313-38.820312 94.242187-55.878906 148.246094-45.625l23.488281 4.457031c.476562.089844.722656.394532.847656.632813.164063.308594.175782.625.042969.929687l-1.019531-.195312c-35.667969-6.769531-72.105469-2.769531-105.378906 11.566406-3.804688 1.640625-5.558594 6.050782-3.917969 9.855469 1.222656 2.835937 3.984375 4.535156 6.890625 4.535156.992187 0 1.996094-.199219 2.964844-.613281 30.011718-12.933594 62.839843-16.6875 95.039062-10.894531-10.664062 33.125-9.144531 69.140625 4.503906 101.386719l-95.675781 95.671874c-32.25-13.65625-68.230469-15.1875-101.371094-4.511718zm315.273438 122.734375c-38.820313 38.816406-94.238281 55.875-148.246094 45.625l-23.488281-4.460938c-.476563-.089843-.722656-.390625-.847656-.628906-.164063-.3125-.179688-.625-.042969-.933594l1.019531.195313c11.273438 2.140625 22.597656 3.1875 33.84375 3.1875 47.511719 0 93.574219-18.710938 127.804688-52.941406 42.332031-42.332032 60.933593-102.761719 49.753906-161.648438l-.195313-1.019531c.308594-.136719.621094-.121094.933594.042969.238281.125.539063.371093.628906.847656l4.460938 23.488281c10.25 54.007813-6.804688 109.425781-45.625 148.246094zm0 0"/><path d="m440.078125 261.648438c.960937-4.117188-.015625-8.371094-2.683594-11.667969-2.683593-3.3125-6.636719-5.167969-10.914062-5.082031-23.042969.464843-46.414063-3.953126-67.582031-12.757813-5.121094-2.132813-10.976563-.964844-14.910157 2.972656l-13.40625 13.40625c-3.941406 3.9375-5.105469 9.789063-2.976562 14.914063 8.808593 21.167968 13.222656 44.535156 12.761719 67.582031-.085938 4.25 1.765624 8.226563 5.082031 10.910156 2.464843 1.996094 5.464843 3.046875 8.542969 3.046875 1.039062 0 2.085937-.121094 3.125-.363281 20.195312-4.726563 38.628906-14.984375 53.304687-29.65625 14.671875-14.671875 24.925781-33.105469 29.65625-53.304687zm-84.691406 67.941406c.25-24.242188-4.433594-48.761719-13.585938-71.082032l12.175781-12.175781c22.320313 9.152344 46.84375 13.84375 71.082032 13.585938-4.253906 16.816406-12.960938 32.144531-25.246094 44.425781-12.28125 12.285156-27.613281 20.992188-44.425781 25.246094zm0 0"/></svg>